<svg width="28" height="28" viewBox="0 0 28 28" fill="none" xmlns="http://www.w3.org/2000/svg">
<path fill-rule="evenodd" clip-rule="evenodd" d="M21.0413 1.45898H20.9561C20.0937 1.45897 19.3849 1.45896 18.8115 1.51348C18.2157 1.57013 17.6763 1.69178 17.1856 1.99244C16.6985 2.29094 16.289 2.70048 15.9905 3.18759C15.6898 3.67823 15.5682 4.21763 15.5115 4.81349C15.457 5.3869 15.457 6.09567 15.457 6.958V7.04329C15.457 7.90562 15.457 8.6144 15.5115 9.18781C15.5682 9.78367 15.6898 10.3231 15.9905 10.8137C16.289 11.3008 16.6985 11.7104 17.1856 12.0089C17.6763 12.3095 18.2157 12.4312 18.8115 12.4878C19.3849 12.5423 20.0937 12.5423 20.956 12.5423H21.0414C21.9037 12.5423 22.6125 12.5423 23.1859 12.4878C23.7817 12.4312 24.3211 12.3095 24.8118 12.0089C25.2989 11.7104 25.7084 11.3008 26.0069 10.8137C26.3076 10.3231 26.4292 9.78367 26.4859 9.18781C26.5404 8.6144 26.5404 7.90564 26.5404 7.04331V6.958C26.5404 6.09567 26.5404 5.3869 26.4859 4.81349C26.4292 4.21763 26.3076 3.67823 26.0069 3.18759C25.7084 2.70048 25.2989 2.29094 24.8118 1.99244C24.3211 1.69178 23.7817 1.57013 23.1859 1.51348C22.6124 1.45896 21.9037 1.45897 21.0413 1.45898ZM18.1 3.48456C18.2695 3.38071 18.5094 3.3001 18.9772 3.25562C19.458 3.20991 20.0832 3.20899 20.9987 3.20899C21.9142 3.20899 22.5394 3.20991 23.0202 3.25562C23.488 3.3001 23.7279 3.38071 23.8974 3.48456C24.149 3.63876 24.3606 3.85033 24.5148 4.10196C24.6186 4.27143 24.6993 4.51138 24.7437 4.97914C24.7894 5.45992 24.7904 6.08512 24.7904 7.00065C24.7904 7.91618 24.7894 8.54139 24.7437 9.02217C24.6993 9.48993 24.6186 9.72988 24.5148 9.89934C24.3606 10.151 24.149 10.3625 23.8974 10.5167C23.7279 10.6206 23.488 10.7012 23.0202 10.7457C22.5394 10.7914 21.9142 10.7923 20.9987 10.7923C20.0832 10.7923 19.458 10.7914 18.9772 10.7457C18.5094 10.7012 18.2695 10.6206 18.1 10.5167C17.8484 10.3625 17.6368 10.151 17.4826 9.89934C17.3788 9.72988 17.2981 9.48993 17.2537 9.02217C17.208 8.54139 17.207 7.91618 17.207 7.00065C17.207 6.08512 17.208 5.45992 17.2537 4.97914C17.2981 4.51138 17.3788 4.27143 17.4826 4.10196C17.6368 3.85033 17.8484 3.63876 18.1 3.48456Z" fill="#0A7A4D"/>
<path fill-rule="evenodd" clip-rule="evenodd" d="M6.95606 1.45898H7.04134C7.90367 1.45897 8.61245 1.45896 9.18586 1.51348C9.78172 1.57013 10.3211 1.69178 10.8118 1.99244C11.2989 2.29094 11.7084 2.70048 12.0069 3.18759C12.3076 3.67823 12.4292 4.21763 12.4859 4.81349C12.5404 5.38689 12.5404 6.09565 12.5404 6.95796V7.04331C12.5404 7.90562 12.5404 8.61441 12.4859 9.18781C12.4292 9.78367 12.3076 10.3231 12.0069 10.8137C11.7084 11.3008 11.2989 11.7104 10.8118 12.0089C10.3211 12.3095 9.78172 12.4312 9.18586 12.4878C8.61246 12.5423 7.9037 12.5423 7.04139 12.5423H6.95604C6.09373 12.5423 5.38494 12.5423 4.81154 12.4878C4.21568 12.4312 3.67628 12.3095 3.18563 12.0089C2.69853 11.7104 2.28899 11.3008 1.99049 10.8137C1.68982 10.3231 1.56818 9.78367 1.51153 9.18781C1.45701 8.6144 1.45702 7.90564 1.45703 7.04331V6.95801C1.45702 6.09568 1.45701 5.3869 1.51153 4.81349C1.56818 4.21763 1.68982 3.67823 1.99049 3.18759C2.28899 2.70048 2.69853 2.29094 3.18563 1.99244C3.67628 1.69178 4.21568 1.57013 4.81154 1.51348C5.38495 1.45896 6.09373 1.45897 6.95606 1.45898ZM4.97718 3.25562C4.50942 3.3001 4.26947 3.38071 4.10001 3.48456C3.84838 3.63876 3.63681 3.85033 3.48261 4.10196C3.37876 4.27143 3.29814 4.51138 3.25367 4.97914C3.20796 5.45992 3.20703 6.08512 3.20703 7.00065C3.20703 7.91618 3.20796 8.54139 3.25367 9.02217C3.29814 9.48993 3.37876 9.72988 3.48261 9.89934C3.63681 10.151 3.84838 10.3625 4.10001 10.5167C4.26947 10.6206 4.50942 10.7012 4.97718 10.7457C5.45796 10.7914 6.08317 10.7923 6.9987 10.7923C7.91423 10.7923 8.53943 10.7914 9.02022 10.7457C9.48798 10.7012 9.72792 10.6206 9.89739 10.5167C10.149 10.3625 10.3606 10.151 10.5148 9.89934C10.6186 9.72988 10.6993 9.48993 10.7437 9.02217C10.7894 8.54139 10.7904 7.91618 10.7904 7.00065C10.7904 6.08512 10.7894 5.45992 10.7437 4.97914C10.6993 4.51138 10.6186 4.27143 10.5148 4.10196C10.3606 3.85033 10.149 3.63876 9.89739 3.48456C9.72792 3.38071 9.48798 3.3001 9.02022 3.25562C8.53943 3.20991 7.91423 3.20899 6.9987 3.20899C6.08317 3.20899 5.45796 3.20991 4.97718 3.25562Z" fill="#0A7A4D"/>
<path fill-rule="evenodd" clip-rule="evenodd" d="M6.95606 15.459C6.09374 15.459 5.38494 15.459 4.81154 15.5135C4.21568 15.5701 3.67628 15.6918 3.18563 15.9924C2.69853 16.2909 2.28899 16.7005 1.99049 17.1876C1.68982 17.6782 1.56818 18.2176 1.51153 18.8135C1.45701 19.3869 1.45702 20.0957 1.45703 20.958V21.0433C1.45702 21.9056 1.45701 22.6144 1.51153 23.1878C1.56818 23.7837 1.68982 24.3231 1.99049 24.8137C2.28899 25.3008 2.69853 25.7104 3.18563 26.0089C3.67628 26.3095 4.21568 26.4312 4.81154 26.4878C5.38495 26.5423 6.09371 26.5423 6.95604 26.5423H7.04135C7.90369 26.5423 8.61245 26.5423 9.18586 26.4878C9.78172 26.4312 10.3211 26.3095 10.8118 26.0089C11.2989 25.7104 11.7084 25.3008 12.0069 24.8137C12.3076 24.3231 12.4292 23.7837 12.4859 23.1878C12.5404 22.6144 12.5404 21.9056 12.5404 21.0433V20.958C12.5404 20.0957 12.5404 19.3869 12.4859 18.8135C12.4292 18.2176 12.3076 17.6782 12.0069 17.1876C11.7084 16.7005 11.2989 16.2909 10.8118 15.9924C10.3211 15.6918 9.78172 15.5701 9.18586 15.5135C8.61246 15.459 7.9037 15.459 7.04139 15.459H6.95606ZM4.10001 17.4846C4.26947 17.3807 4.50942 17.3001 4.97718 17.2556C5.45796 17.2099 6.08317 17.209 6.9987 17.209C7.91423 17.209 8.53943 17.2099 9.02022 17.2556C9.48798 17.3001 9.72792 17.3807 9.89739 17.4846C10.149 17.6388 10.3606 17.8503 10.5148 18.102C10.6186 18.2714 10.6993 18.5114 10.7437 18.9791C10.7894 19.4599 10.7904 20.0851 10.7904 21.0007C10.7904 21.9162 10.7894 22.5414 10.7437 23.0222C10.6993 23.4899 10.6186 23.7299 10.5148 23.8993C10.3606 24.151 10.149 24.3625 9.89739 24.5167C9.72792 24.6206 9.48798 24.7012 9.02022 24.7457C8.53943 24.7914 7.91423 24.7923 6.9987 24.7923C6.08317 24.7923 5.45796 24.7914 4.97718 24.7457C4.50942 24.7012 4.26947 24.6206 4.10001 24.5167C3.84838 24.3625 3.63681 24.151 3.48261 23.8993C3.37876 23.7299 3.29814 23.4899 3.25367 23.0222C3.20796 22.5414 3.20703 21.9162 3.20703 21.0007C3.20703 20.0851 3.20796 19.4599 3.25367 18.9791C3.29814 18.5114 3.37876 18.2714 3.48261 18.102C3.63681 17.8503 3.84838 17.6388 4.10001 17.4846Z" fill="#0A7A4D"/>
<path fill-rule="evenodd" clip-rule="evenodd" d="M23.1859 15.5135C22.6124 15.459 21.9037 15.459 21.0413 15.459H20.9561C20.0937 15.459 19.3849 15.459 18.8115 15.5135C18.2157 15.5701 17.6763 15.6918 17.1856 15.9924C16.6985 16.2909 16.289 16.7005 15.9905 17.1876C15.6898 17.6782 15.5682 18.2176 15.5115 18.8135C15.457 19.3869 15.457 20.0957 15.457 20.958V21.0433C15.457 21.9056 15.457 22.6144 15.5115 23.1878C15.5682 23.7837 15.6898 24.3231 15.9905 24.8137C16.289 25.3008 16.6985 25.7104 17.1856 26.0089C17.6763 26.3095 18.2157 26.4312 18.8115 26.4878C19.3849 26.5423 20.0937 26.5423 20.956 26.5423H21.0414C21.9037 26.5423 22.6125 26.5423 23.1859 26.4878C23.7817 26.4312 24.3211 26.3095 24.8118 26.0089C25.2989 25.7104 25.7084 25.3008 26.0069 24.8137C26.3076 24.3231 26.4292 23.7837 26.4859 23.1878C26.5404 22.6144 26.5404 21.9056 26.5404 21.0433V20.958C26.5404 20.0957 26.5404 19.3869 26.4859 18.8135C26.4292 18.2176 26.3076 17.6782 26.0069 17.1876C25.7084 16.7005 25.2989 16.2909 24.8118 15.9924C24.3211 15.6918 23.7817 15.5701 23.1859 15.5135ZM18.1 17.4846C18.2695 17.3807 18.5094 17.3001 18.9772 17.2556C19.458 17.2099 20.0832 17.209 20.9987 17.209C21.9142 17.209 22.5394 17.2099 23.0202 17.2556C23.488 17.3001 23.7279 17.3807 23.8974 17.4846C24.149 17.6388 24.3606 17.8503 24.5148 18.102C24.6186 18.2714 24.6993 18.5114 24.7437 18.9791C24.7894 19.4599 24.7904 20.0851 24.7904 21.0007C24.7904 21.9162 24.7894 22.5414 24.7437 23.0222C24.6993 23.4899 24.6186 23.7299 24.5148 23.8993C24.3606 24.151 24.149 24.3625 23.8974 24.5167C23.7279 24.6206 23.488 24.7012 23.0202 24.7457C22.5394 24.7914 21.9142 24.7923 20.9987 24.7923C20.0832 24.7923 19.458 24.7914 18.9772 24.7457C18.5094 24.7012 18.2695 24.6206 18.1 24.5167C17.8484 24.3625 17.6368 24.151 17.4826 23.8993C17.3788 23.7299 17.2981 23.4899 17.2537 23.0222C17.208 22.5414 17.207 21.9162 17.207 21.0007C17.207 20.0851 17.208 19.4599 17.2537 18.9791C17.2981 18.5114 17.3788 18.2714 17.4826 18.102C17.6368 17.8503 17.8484 17.6388 18.1 17.4846Z" fill="#0A7A4D"/>
</svg>
