<?xml version="1.0" encoding="iso-8859-1"?>
<!-- Generator: Adobe Illustrator 27.0.0, SVG Export Plug-In . SVG Version: 6.00 Build 0)  -->
<svg version="1.1" id="Layer_1" xmlns="http://www.w3.org/2000/svg" xmlns:xlink="http://www.w3.org/1999/xlink" x="0px" y="0px"
	 viewBox="0 0 500 500" style="enable-background:new 0 0 500 500;" xml:space="preserve">
<g id="watermark_1_">
	<g>
		<g id="watermark" style="opacity:0.61;">
			<g>
				<g>
					<g>
						<g>
							<polygon style="fill:#FFFFFF;" points="213.765,461.172 208.204,474.017 205.268,474.017 199.726,461.172 202.938,461.172 
								206.846,470.347 210.81,461.172 							"/>
						</g>
						<g>
							<path style="fill:#FFFFFF;" d="M223.507,469.741h-7.469c0.275,1.23,1.321,1.982,2.826,1.982c1.046,0,1.798-0.312,2.477-0.954
								l1.523,1.651c-0.917,1.046-2.294,1.597-4.074,1.597c-3.413,0-5.634-2.147-5.634-5.083c0-2.954,2.257-5.083,5.267-5.083
								c2.899,0,5.138,1.945,5.138,5.12C223.562,469.191,223.526,469.503,223.507,469.741 M216.002,468.071h4.863
								c-0.202-1.248-1.138-2.055-2.422-2.055C217.139,466.016,216.204,466.805,216.002,468.071"/>
						</g>
						<g>
							<path style="fill:#FFFFFF;" d="M224.735,468.934c0-2.973,2.294-5.083,5.505-5.083c2.074,0,3.707,0.899,4.423,2.514
								l-2.22,1.193c-0.532-0.936-1.321-1.358-2.221-1.358c-1.45,0-2.587,1.009-2.587,2.734c0,1.725,1.138,2.734,2.587,2.734
								c0.899,0,1.688-0.404,2.221-1.358l2.22,1.211c-0.716,1.578-2.349,2.495-4.423,2.495
								C227.029,474.017,224.735,471.907,224.735,468.934"/>
						</g>
						<g>
							<path style="fill:#FFFFFF;" d="M242.828,473.393c-0.587,0.422-1.45,0.624-2.331,0.624c-2.33,0-3.688-1.193-3.688-3.542
								v-4.055h-1.523v-2.202h1.523v-2.404h2.863v2.404h2.459v2.202h-2.459v4.019c0,0.844,0.458,1.303,1.229,1.303
								c0.422,0,0.844-0.128,1.156-0.367L242.828,473.393z"/>
						</g>
					</g>
					<g>
						<path style="fill:#FFFFFF;" d="M262.474,463.997v2.643c-0.238-0.018-0.422-0.037-0.642-0.037
							c-1.578,0-2.624,0.862-2.624,2.753v4.661h-2.863v-9.873h2.734v1.303C259.776,464.493,260.951,463.997,262.474,463.997"/>
					</g>
					<g>
						<path style="fill:#FFFFFF;" d="M263.299,472.53l1.009-2.239c1.083,0.789,2.697,1.339,4.239,1.339
							c1.762,0,2.477-0.587,2.477-1.376c0-2.404-7.469-0.752-7.469-5.524c0-2.184,1.762-4,5.413-4c1.615,0,3.267,0.385,4.459,1.138
							l-0.918,2.257c-1.193-0.679-2.422-1.009-3.56-1.009c-1.761,0-2.44,0.66-2.44,1.468c0,2.367,7.468,0.734,7.468,5.45
							c0,2.147-1.78,3.982-5.45,3.982C266.492,474.017,264.437,473.411,263.299,472.53"/>
					</g>
					<g>
						<path style="fill:#FFFFFF;" d="M285.428,469.741h-7.469c0.275,1.23,1.321,1.982,2.826,1.982c1.046,0,1.798-0.312,2.477-0.954
							l1.523,1.651c-0.918,1.046-2.294,1.597-4.074,1.597c-3.413,0-5.634-2.147-5.634-5.083c0-2.954,2.257-5.083,5.267-5.083
							c2.9,0,5.138,1.945,5.138,5.12C285.484,469.191,285.447,469.503,285.428,469.741 M277.923,468.071h4.863
							c-0.202-1.248-1.138-2.055-2.422-2.055C279.061,466.016,278.125,466.805,277.923,468.071"/>
					</g>
					<g>
						<path style="fill:#FFFFFF;" d="M297.007,469.741h-7.469c0.275,1.23,1.321,1.982,2.826,1.982c1.046,0,1.798-0.312,2.477-0.954
							l1.523,1.651c-0.918,1.046-2.294,1.597-4.074,1.597c-3.413,0-5.634-2.147-5.634-5.083c0-2.954,2.257-5.083,5.267-5.083
							c2.899,0,5.138,1.945,5.138,5.12C297.062,469.191,297.025,469.503,297.007,469.741 M289.501,468.071h4.863
							c-0.202-1.248-1.138-2.055-2.422-2.055C290.639,466.016,289.703,466.805,289.501,468.071"/>
					</g>
					<g>
						<polygon style="fill:#FFFFFF;" points="303.208,470.145 301.831,471.503 301.831,474.017 298.969,474.017 298.969,460.401 
							301.831,460.401 301.831,468.108 306.016,464.144 309.429,464.144 305.318,468.328 309.796,474.017 306.327,474.017 						"/>
					</g>
					<g>
						<path style="fill:#FFFFFF;" d="M256.601,475.359L256.601,475.359l-2.86-2.86c-0.435,0.508-0.953,0.943-1.534,1.284
							c-0.092,0.069-0.186,0.136-0.283,0.199l3.027,3.027c0.456,0.456,1.195,0.456,1.65,0
							C257.057,476.554,257.057,475.815,256.601,475.359"/>
					</g>
					<g>
						<path style="fill:#FFFFFF;" d="M249.984,463.244c0.221-0.173,0.495-0.281,0.797-0.281c0.042,0,0.083,0.002,0.124,0.006
							c-0.214-0.156-0.478-0.249-0.764-0.249c-0.395,0-0.744,0.18-0.981,0.458c-0.051,0-0.1,0.006-0.151,0.008
							c0.039-0.077,0.064-0.162,0.064-0.255c0-0.234-0.143-0.434-0.346-0.519c0.087,0.126,0.138,0.279,0.138,0.445
							c0,0.122-0.031,0.237-0.081,0.341c-2.811,0.201-5.03,2.539-5.03,5.4c0,2.993,2.426,5.42,5.42,5.42
							c2.993,0,5.42-2.426,5.42-5.42C254.595,465.879,252.593,463.635,249.984,463.244 M247.983,464.656
							c0.435,0,0.844,0.112,1.199,0.309c0.374-0.245,0.82-0.387,1.299-0.387c0.711,0,1.348,0.312,1.784,0.806
							c-0.435-0.379-1.004-0.61-1.627-0.61c-0.449,0-0.87,0.12-1.234,0.329c-0.079,0.046-0.156,0.096-0.229,0.15
							c-0.065-0.048-0.133-0.093-0.204-0.134c-0.369-0.219-0.8-0.344-1.26-0.344c-0.3,0-0.588,0.054-0.854,0.152
							C247.196,464.754,247.578,464.656,247.983,464.656 M251.772,469.098c0.115,0.305,0.181,0.634,0.181,0.979
							c0,1.534-1.244,2.777-2.778,2.777c-1.534,0-2.777-1.243-2.777-2.777c0-0.345,0.066-0.674,0.181-0.979
							c-0.62-0.382-1.035-1.064-1.035-1.846c0-1.197,0.971-2.168,2.168-2.168c0.565,0,1.078,0.218,1.463,0.572
							c0.386-0.354,0.899-0.572,1.464-0.572c1.197,0,2.168,0.971,2.168,2.168C252.807,468.034,252.392,468.716,251.772,469.098"/>
					</g>
					<g>
						<path style="fill:#FFFFFF;" d="M251.666,467.061c0,0.497-0.404,0.901-0.901,0.901c-0.497,0-0.901-0.404-0.901-0.901
							s0.404-0.901,0.901-0.901c0.101,0,0.197,0.017,0.287,0.047c-0.03,0.062-0.045,0.132-0.045,0.204
							c0,0.273,0.221,0.494,0.494,0.494c0.05,0,0.099-0.008,0.146-0.022C251.66,466.941,251.666,467,251.666,467.061"/>
					</g>
					<g>
						<path style="fill:#FFFFFF;" d="M248.255,467.061c0,0.376-0.305,0.681-0.681,0.681c-0.376,0-0.681-0.305-0.681-0.681
							s0.305-0.681,0.681-0.681c0.076,0,0.149,0.013,0.217,0.035c-0.023,0.047-0.034,0.1-0.034,0.155
							c0,0.206,0.167,0.374,0.374,0.374c0.038,0,0.075-0.006,0.11-0.017C248.25,466.97,248.255,467.015,248.255,467.061"/>
					</g>
					<g>
						<g>
							<g>
								<rect x="242.908" y="467.83" style="fill:#FFFFFF;" width="0.616" height="0.616"/>
							</g>
							<g>
								<rect x="254.827" y="467.83" style="fill:#FFFFFF;" width="0.616" height="0.616"/>
							</g>
							<g>
								<path style="fill:#FFFFFF;" d="M255.205,468.082h-0.14c0-3.248-2.642-5.89-5.89-5.89c-3.248,0-5.89,2.642-5.89,5.89h-0.14
									c0-1.611,0.627-3.125,1.766-4.264c1.139-1.139,2.653-1.766,4.264-1.766c1.611,0,3.125,0.627,4.264,1.766
									C254.578,464.957,255.205,466.471,255.205,468.082"/>
							</g>
						</g>
						<g>
							<rect x="248.868" y="461.814" style="fill:#FFFFFF;" width="0.616" height="0.616"/>
						</g>
						<g>
							<rect x="244.95" y="462.052" style="fill:#FFFFFF;" width="8.45" height="0.14"/>
						</g>
						<g>
							<path style="fill:#FFFFFF;" d="M245.174,462.15c0,0.108-0.088,0.196-0.196,0.196c-0.108,0-0.196-0.088-0.196-0.196
								c0-0.108,0.088-0.196,0.196-0.196C245.086,461.954,245.174,462.042,245.174,462.15"/>
						</g>
						<g>
							<path style="fill:#FFFFFF;" d="M253.596,462.15c0,0.108-0.088,0.196-0.196,0.196c-0.108,0-0.196-0.088-0.196-0.196
								c0-0.108,0.088-0.196,0.196-0.196C253.509,461.954,253.596,462.042,253.596,462.15"/>
						</g>
					</g>
				</g>
				<g>
					<path style="fill:#FFFFFF;" d="M314.356,473.409c0,1.559-2.364,1.559-2.364,0C311.993,471.851,314.356,471.851,314.356,473.409
						z"/>
				</g>
				<g>
					<g>
						<g>
							<path style="fill:#FFFFFF;" d="M161.739,466.549l1.772,6.088l1.855-6.088h2.215l-2.823,8.14h-2.33l-0.837-2.396l-0.722-2.708
								l-0.722,2.708l-0.837,2.396h-2.33l-2.839-8.14h2.231l1.855,6.088l1.756-6.088H161.739z"/>
						</g>
						<g>
							<path style="fill:#FFFFFF;" d="M176.713,466.549l1.772,6.088l1.855-6.088h2.215l-2.823,8.14h-2.33l-0.837-2.396l-0.722-2.708
								l-0.722,2.708l-0.837,2.396h-2.33l-2.839-8.14h2.231l1.855,6.088l1.756-6.088H176.713z"/>
						</g>
						<g>
							<path style="fill:#FFFFFF;" d="M191.687,466.549l1.772,6.088l1.855-6.088h2.215l-2.823,8.14h-2.33l-0.837-2.396l-0.722-2.708
								l-0.722,2.708l-0.837,2.396h-2.33l-2.839-8.14h2.231l1.855,6.088l1.756-6.088H191.687z"/>
						</g>
					</g>
					<g>
						<path style="fill:#FFFFFF;" d="M200.908,473.52c0,1.559-2.364,1.559-2.364,0C198.545,471.962,200.908,471.962,200.908,473.52z
							"/>
					</g>
					<g>
						<path style="fill:#FFFFFF;" d="M322.71,473.409c-0.935,0.919-1.919,1.28-3.117,1.28c-2.346,0-4.3-1.411-4.3-4.282
							s1.953-4.284,4.3-4.284c1.149,0,2.035,0.329,2.921,1.199l-1.264,1.329c-0.476-0.428-1.066-0.64-1.623-0.64
							c-1.346,0-2.33,0.985-2.33,2.396c0,1.542,1.05,2.362,2.297,2.362c0.64,0,1.28-0.18,1.772-0.672L322.71,473.409z"/>
					</g>
					<g>
						<path style="fill:#FFFFFF;" d="M331.805,470.472c0,2.33-1.591,4.217-4.217,4.217c-2.626,0-4.201-1.887-4.201-4.217
							c0-2.314,1.609-4.217,4.185-4.217C330.149,466.255,331.805,468.158,331.805,470.472z M325.389,470.472
							c0,1.231,0.739,2.38,2.199,2.38c1.46,0,2.199-1.149,2.199-2.38c0-1.215-0.854-2.396-2.199-2.396
							C326.144,468.077,325.389,469.258,325.389,470.472z"/>
					</g>
					<g>
						<path style="fill:#FFFFFF;" d="M338.572,474.689v-4.332c0-1.068-0.559-2.035-1.658-2.035c-1.082,0-1.722,0.967-1.722,2.035
							v4.332h-2.003v-8.107h1.855l0.148,0.985c0.426-0.82,1.362-1.116,2.133-1.116c0.969,0,1.937,0.394,2.396,1.51
							c0.723-1.149,1.658-1.478,2.708-1.478c2.297,0,3.43,1.412,3.43,3.84v4.365h-2.003v-4.365c0-1.066-0.442-1.97-1.526-1.97
							c-1.082,0-1.756,0.935-1.756,2.003v4.332H338.572z"/>
					</g>
				</g>
			</g>
		</g>
		<g style="opacity:0.61;">
			<g>
				<g>
					<path style="fill:#FFFFFF;" d="M345.988,431.299c-0.006-1.224-0.959-2.121-2.189-2.14c-0.924-0.014-0.832,0.12-0.834-0.867
						c-0.003-1.097-0.007-2.194,0.003-3.292c0.003-0.379-0.112-0.691-0.362-0.976c-2.342-2.668-4.678-5.342-7.019-8.011
						c-0.12-0.137-0.275-0.244-0.414-0.366c-6.214,0-12.427,0-18.641,0c-0.794,0.293-1.14,0.868-1.138,1.709
						c0.01,3.748,0.004,7.496,0.004,11.243c0,0.556-0.003,0.589-0.55,0.551c-1.497-0.102-2.516,0.986-2.497,2.492
						c0.044,3.476,0.013,6.953,0.014,10.429c0.001,1.58,0.867,2.443,2.45,2.449c0.582,0.002,0.582,0.002,0.582,0.6
						c0,2.219-0.001,4.438,0.001,6.657c0.001,1.192,0.58,1.771,1.768,1.771c8.013,0.001,16.027,0.001,24.04,0
						c1.168,0,1.755-0.583,1.757-1.745c0.002-2.256,0-4.512,0.001-6.768c0-0.512,0.002-0.511,0.52-0.515
						c0.271-0.002,0.541,0.008,0.809-0.058c0.996-0.246,1.69-1.044,1.694-2.069C346.003,438.696,346.005,434.997,345.988,431.299z
						 M317.537,417.162c5.337,0,10.674,0,16.01,0c0.548,0,0.554,0.007,0.554,0.561c0.001,2.243-0.001,4.486,0.001,6.73
						c0.001,0.811,0.249,1.059,1.06,1.059c1.91,0.001,3.821,0,5.731,0.001c0.458,0,0.479,0.021,0.481,0.483
						c0.003,0.887,0.002,1.775,0,2.662c-0.001,0.477-0.024,0.498-0.504,0.499c-3.895,0.001-7.79,0-11.684,0
						c-3.882,0-7.765,0-11.647,0c-0.55,0-0.552-0.001-0.552-0.561c-0.001-3.624-0.001-7.247,0-10.871
						C316.987,417.166,316.991,417.162,317.537,417.162z M340.822,451.579c-3.883,0.001-7.766,0-11.65,0c-3.871,0-7.742,0-11.613,0
						c-0.572,0-0.574-0.002-0.574-0.579c-0.001-1.997-0.001-3.994,0.001-5.991c0-0.464,0.023-0.486,0.478-0.487
						c7.803-0.001,15.607-0.001,23.41,0c0.478,0,0.499,0.02,0.499,0.503c0.002,1.997,0.001,3.994,0,5.991
						C341.375,451.574,341.37,451.579,340.822,451.579z"/>
				</g>
				<g>
					<g>
						<rect x="327.418" y="417.053" style="fill:#FFFFFF;" width="1.757" height="1.054"/>
					</g>
					<g>
						<rect x="325.662" y="418.107" style="fill:#FFFFFF;" width="1.757" height="1.054"/>
					</g>
					<g>
						<rect x="327.418" y="419.161" style="fill:#FFFFFF;" width="1.757" height="1.054"/>
					</g>
					<g>
						<rect x="325.662" y="420.215" style="fill:#FFFFFF;" width="1.757" height="1.054"/>
					</g>
					<g>
						<rect x="327.418" y="421.269" style="fill:#FFFFFF;" width="1.757" height="1.054"/>
					</g>
					<g>
						<rect x="325.662" y="422.323" style="fill:#FFFFFF;" width="1.757" height="1.054"/>
					</g>
					<g>
						<rect x="327.418" y="423.378" style="fill:#FFFFFF;" width="1.757" height="1.054"/>
					</g>
					<g>
						<rect x="325.662" y="424.432" style="fill:#FFFFFF;" width="1.757" height="1.054"/>
					</g>
					<g>
						<rect x="327.418" y="425.486" style="fill:#FFFFFF;" width="1.757" height="1.054"/>
					</g>
					<g>
						<rect x="325.662" y="426.54" style="fill:#FFFFFF;" width="1.757" height="1.054"/>
					</g>
					<g>
						<rect x="327.418" y="427.594" style="fill:#FFFFFF;" width="1.757" height="1.054"/>
					</g>
					<g>
						<rect x="325.662" y="428.648" style="fill:#FFFFFF;" width="1.757" height="1.054"/>
					</g>
				</g>
			</g>
			<g>
				<path style="fill:#FFFFFF;" d="M187.637,431.299c-0.006-1.224-0.959-2.121-2.189-2.14c-0.924-0.014-0.832,0.12-0.834-0.867
					c-0.003-1.097-0.007-2.194,0.003-3.292c0.003-0.379-0.112-0.691-0.362-0.976c-2.342-2.668-4.678-5.342-7.019-8.011
					c-0.12-0.137-0.275-0.244-0.414-0.366c-6.214,0-12.427,0-18.641,0c-0.794,0.293-1.14,0.868-1.138,1.709
					c0.01,3.748,0.004,7.496,0.004,11.243c0,0.556-0.003,0.589-0.55,0.551c-1.497-0.102-2.516,0.986-2.497,2.492
					c0.044,3.476,0.013,6.953,0.014,10.429c0.001,1.58,0.867,2.443,2.45,2.449c0.582,0.002,0.582,0.002,0.582,0.6
					c0,2.219-0.001,4.438,0.001,6.657c0.001,1.192,0.58,1.771,1.768,1.771c8.013,0.001,16.027,0.001,24.04,0
					c1.168,0,1.755-0.583,1.757-1.745c0.002-2.256,0-4.512,0.001-6.768c0-0.512,0.002-0.511,0.52-0.515
					c0.271-0.002,0.541,0.008,0.809-0.058c0.996-0.246,1.69-1.044,1.694-2.069C187.652,438.696,187.655,434.997,187.637,431.299z
					 M159.187,417.162c5.337,0,10.674,0,16.01,0c0.548,0,0.554,0.007,0.554,0.561c0.001,2.243-0.001,4.486,0.001,6.73
					c0.001,0.811,0.249,1.059,1.06,1.059c1.91,0.001,3.821,0,5.731,0.001c0.458,0,0.479,0.021,0.481,0.483
					c0.003,0.887,0.002,1.775,0,2.662c-0.001,0.477-0.024,0.498-0.504,0.499c-3.895,0.001-7.79,0-11.684,0
					c-3.882,0-7.765,0-11.647,0c-0.55,0-0.552-0.001-0.552-0.561c-0.001-3.624-0.001-7.247,0-10.871
					C158.636,417.166,158.64,417.162,159.187,417.162z M182.472,451.579c-3.883,0.001-7.766,0-11.65,0c-3.871,0-7.742,0-11.613,0
					c-0.572,0-0.574-0.002-0.574-0.579c-0.001-1.997-0.001-3.994,0.001-5.991c0-0.464,0.023-0.486,0.478-0.487
					c7.803-0.001,15.607-0.001,23.41,0c0.478,0,0.499,0.02,0.499,0.503c0.002,1.997,0.001,3.994,0,5.991
					C183.024,451.574,183.019,451.579,182.472,451.579z"/>
			</g>
			<g>
				<path style="fill:#FFFFFF;" d="M159.779,440.669v-7.897h2.779c0.375,0,0.726,0.061,1.053,0.182
					c0.327,0.121,0.612,0.292,0.855,0.513c0.242,0.221,0.434,0.483,0.573,0.789c0.14,0.305,0.21,0.642,0.21,1.009
					c0,0.375-0.07,0.715-0.21,1.02c-0.14,0.305-0.331,0.568-0.573,0.789c-0.243,0.221-0.528,0.392-0.855,0.513
					c-0.327,0.121-0.678,0.182-1.053,0.182h-1.29v2.901H159.779z M162.58,436.356c0.39,0,0.684-0.111,0.882-0.331
					c0.199-0.22,0.298-0.474,0.298-0.761c0-0.14-0.024-0.276-0.072-0.408c-0.048-0.132-0.121-0.248-0.221-0.347
					c-0.099-0.099-0.223-0.178-0.37-0.237c-0.147-0.059-0.32-0.089-0.518-0.089h-1.312v2.173H162.58z"/>
				<path style="fill:#FFFFFF;" d="M166.308,432.771h1.731l3.177,5.294h0.088l-0.088-1.522v-3.772h1.478v7.897h-1.566l-3.353-5.592
					h-0.088l0.088,1.522v4.07h-1.467V432.771z"/>
				<path style="fill:#FFFFFF;" d="M177.922,436.334h3.872c0.022,0.089,0.04,0.195,0.055,0.32c0.014,0.125,0.022,0.25,0.022,0.375
					c0,0.507-0.077,0.985-0.231,1.434c-0.154,0.449-0.397,0.849-0.728,1.202c-0.353,0.375-0.776,0.666-1.268,0.871
					c-0.493,0.206-1.055,0.309-1.688,0.309c-0.574,0-1.114-0.103-1.622-0.309c-0.507-0.206-0.948-0.492-1.323-0.86
					c-0.375-0.367-0.673-0.803-0.894-1.307c-0.221-0.504-0.331-1.053-0.331-1.649c0-0.595,0.11-1.145,0.331-1.649
					c0.221-0.504,0.518-0.939,0.894-1.307c0.375-0.367,0.816-0.654,1.323-0.86c0.507-0.206,1.048-0.309,1.622-0.309
					c0.64,0,1.211,0.11,1.715,0.331c0.504,0.221,0.935,0.526,1.296,0.915l-1.025,1.004c-0.258-0.272-0.544-0.48-0.861-0.623
					c-0.316-0.143-0.695-0.215-1.136-0.215c-0.361,0-0.703,0.065-1.026,0.193c-0.324,0.129-0.607,0.311-0.85,0.546
					c-0.242,0.235-0.436,0.52-0.579,0.855c-0.143,0.335-0.215,0.708-0.215,1.119c0,0.412,0.072,0.785,0.215,1.12
					c0.143,0.335,0.338,0.62,0.584,0.855c0.246,0.235,0.531,0.418,0.855,0.546c0.323,0.129,0.669,0.193,1.037,0.193
					c0.419,0,0.773-0.061,1.064-0.182c0.29-0.121,0.538-0.278,0.744-0.469c0.148-0.132,0.275-0.3,0.381-0.502
					c0.106-0.202,0.189-0.428,0.248-0.678h-2.482V436.334z"/>
			</g>
			<g>
				<path style="fill:#FFFFFF;" d="M224.019,431.299c-0.006-1.224-0.959-2.121-2.189-2.14c-0.924-0.014-0.832,0.12-0.834-0.867
					c-0.003-1.097-0.007-2.194,0.003-3.292c0.003-0.379-0.112-0.691-0.362-0.976c-2.342-2.668-4.678-5.342-7.019-8.011
					c-0.12-0.137-0.275-0.244-0.414-0.366c-6.214,0-12.427,0-18.641,0c-0.794,0.293-1.14,0.868-1.138,1.709
					c0.01,3.748,0.004,7.496,0.004,11.243c0,0.556-0.003,0.589-0.55,0.551c-1.497-0.102-2.516,0.986-2.497,2.492
					c0.044,3.476,0.013,6.953,0.014,10.429c0.001,1.58,0.867,2.443,2.45,2.449c0.582,0.002,0.582,0.002,0.582,0.6
					c0,2.219-0.001,4.438,0.001,6.657c0.001,1.192,0.58,1.771,1.768,1.771c8.013,0.001,16.027,0.001,24.04,0
					c1.168,0,1.755-0.583,1.757-1.745c0.002-2.256,0-4.512,0.001-6.768c0-0.512,0.002-0.511,0.52-0.515
					c0.271-0.002,0.541,0.008,0.809-0.058c0.997-0.246,1.69-1.044,1.694-2.069C224.034,438.696,224.036,434.997,224.019,431.299z
					 M195.568,417.162c5.337,0,10.674,0,16.01,0c0.548,0,0.554,0.007,0.554,0.561c0.001,2.243-0.001,4.486,0.001,6.73
					c0.001,0.811,0.249,1.059,1.06,1.059c1.91,0.001,3.821,0,5.731,0.001c0.458,0,0.479,0.021,0.481,0.483
					c0.003,0.887,0.002,1.775,0,2.662c-0.001,0.477-0.024,0.498-0.504,0.499c-3.895,0.001-7.79,0-11.684,0
					c-3.882,0-7.765,0-11.647,0c-0.55,0-0.552-0.001-0.552-0.561c-0.001-3.624-0.001-7.247,0-10.871
					C195.018,417.166,195.022,417.162,195.568,417.162z M218.854,451.579c-3.883,0.001-7.766,0-11.65,0c-3.871,0-7.742,0-11.613,0
					c-0.572,0-0.574-0.002-0.574-0.579c-0.001-1.997-0.001-3.994,0.001-5.991c0-0.464,0.023-0.486,0.478-0.487
					c7.803-0.001,15.607-0.001,23.41,0c0.478,0,0.499,0.02,0.499,0.503c0.002,1.997,0.001,3.994,0,5.991
					C219.406,451.574,219.401,451.579,218.854,451.579z"/>
			</g>
			<g>
				<path style="fill:#FFFFFF;" d="M205.111,432.771h1.699l2.967,7.897h-1.644l-0.651-1.886h-3.044l-0.651,1.886h-1.643
					L205.111,432.771z M206.997,437.415l-0.706-1.974l-0.287-0.96h-0.088l-0.287,0.96l-0.706,1.974H206.997z"/>
				<path style="fill:#FFFFFF;" d="M211.331,434.536c-0.125,0-0.245-0.024-0.359-0.072c-0.114-0.048-0.213-0.114-0.298-0.199
					c-0.084-0.084-0.151-0.182-0.198-0.292c-0.048-0.11-0.072-0.232-0.072-0.364s0.024-0.254,0.072-0.364
					c0.048-0.11,0.114-0.208,0.198-0.292c0.084-0.084,0.184-0.151,0.298-0.198c0.114-0.048,0.233-0.072,0.359-0.072
					c0.257,0,0.478,0.09,0.662,0.27c0.184,0.181,0.276,0.399,0.276,0.656s-0.092,0.476-0.276,0.656
					C211.809,434.446,211.589,434.536,211.331,434.536z M210.615,440.669v-5.404h1.445v5.404H210.615z"/>
			</g>
			<g>
				<path style="fill:#FFFFFF;" d="M261.044,431.299c-0.006-1.224-0.959-2.121-2.189-2.14c-0.924-0.014-0.832,0.12-0.834-0.867
					c-0.003-1.097-0.007-2.194,0.003-3.292c0.003-0.379-0.112-0.691-0.362-0.976c-2.342-2.668-4.678-5.342-7.019-8.011
					c-0.12-0.137-0.275-0.244-0.414-0.366c-6.214,0-12.427,0-18.641,0c-0.794,0.293-1.14,0.868-1.138,1.709
					c0.01,3.748,0.004,7.496,0.004,11.243c0,0.556-0.003,0.589-0.55,0.551c-1.497-0.102-2.516,0.986-2.497,2.492
					c0.044,3.476,0.013,6.953,0.014,10.429c0.001,1.58,0.867,2.443,2.45,2.449c0.582,0.002,0.582,0.002,0.582,0.6
					c0,2.219-0.001,4.438,0.001,6.657c0.001,1.192,0.58,1.771,1.768,1.771c8.013,0.001,16.027,0.001,24.04,0
					c1.168,0,1.755-0.583,1.757-1.745c0.002-2.256,0-4.512,0.001-6.768c0-0.512,0.002-0.511,0.52-0.515
					c0.271-0.002,0.541,0.008,0.809-0.058c0.996-0.246,1.69-1.044,1.694-2.069C261.059,438.696,261.061,434.997,261.044,431.299z
					 M232.593,417.162c5.337,0,10.674,0,16.01,0c0.548,0,0.554,0.007,0.554,0.561c0.001,2.243-0.001,4.486,0.001,6.73
					c0.001,0.811,0.249,1.059,1.06,1.059c1.91,0.001,3.821,0,5.731,0.001c0.458,0,0.479,0.021,0.481,0.483
					c0.003,0.887,0.002,1.775,0,2.662c-0.001,0.477-0.024,0.498-0.504,0.499c-3.895,0.001-7.79,0-11.684,0
					c-3.882,0-7.765,0-11.647,0c-0.55,0-0.552-0.001-0.552-0.561c-0.001-3.624-0.001-7.247,0-10.871
					C232.042,417.166,232.047,417.162,232.593,417.162z M255.878,451.579c-3.883,0.001-7.766,0-11.65,0c-3.871,0-7.742,0-11.613,0
					c-0.572,0-0.574-0.002-0.574-0.579c-0.001-1.997-0.001-3.994,0.001-5.991c0-0.464,0.023-0.486,0.478-0.487
					c7.803-0.001,15.607-0.001,23.41,0c0.478,0,0.499,0.02,0.499,0.503c0.002,1.997,0.001,3.994,0,5.991
					C256.431,451.574,256.426,451.579,255.878,451.579z"/>
			</g>
			<g>
				<path style="fill:#FFFFFF;" d="M236.361,440.845c-0.338,0-0.662-0.048-0.971-0.143c-0.309-0.095-0.592-0.239-0.849-0.43
					c-0.257-0.191-0.481-0.425-0.673-0.7c-0.191-0.276-0.342-0.597-0.452-0.965l1.401-0.551c0.103,0.397,0.283,0.726,0.54,0.987
					c0.257,0.261,0.596,0.392,1.015,0.392c0.154,0,0.303-0.02,0.447-0.061c0.143-0.04,0.272-0.099,0.386-0.176
					s0.204-0.175,0.27-0.292c0.066-0.118,0.099-0.254,0.099-0.408c0-0.147-0.026-0.279-0.077-0.397
					c-0.051-0.117-0.138-0.227-0.259-0.331c-0.121-0.103-0.28-0.202-0.475-0.298c-0.195-0.095-0.435-0.195-0.722-0.298l-0.485-0.176
					c-0.213-0.073-0.429-0.173-0.645-0.298c-0.217-0.125-0.413-0.276-0.59-0.452c-0.177-0.176-0.322-0.384-0.436-0.623
					c-0.114-0.239-0.171-0.509-0.171-0.81c0-0.309,0.06-0.597,0.182-0.866c0.121-0.268,0.294-0.503,0.518-0.706
					c0.224-0.202,0.492-0.36,0.805-0.474s0.66-0.171,1.042-0.171c0.397,0,0.74,0.053,1.031,0.16
					c0.291,0.107,0.537,0.243,0.739,0.408c0.202,0.165,0.366,0.348,0.491,0.546c0.125,0.199,0.217,0.386,0.276,0.563l-1.312,0.551
					c-0.074-0.221-0.208-0.419-0.402-0.596c-0.195-0.176-0.462-0.265-0.8-0.265c-0.324,0-0.592,0.075-0.805,0.226
					c-0.213,0.151-0.32,0.348-0.32,0.59c0,0.235,0.103,0.436,0.309,0.601c0.206,0.165,0.533,0.325,0.982,0.48l0.497,0.165
					c0.316,0.111,0.605,0.237,0.866,0.381c0.261,0.143,0.485,0.314,0.673,0.513c0.187,0.199,0.331,0.425,0.43,0.678
					c0.1,0.254,0.149,0.546,0.149,0.877c0,0.412-0.083,0.767-0.248,1.064c-0.165,0.298-0.377,0.542-0.634,0.734
					c-0.258,0.191-0.548,0.335-0.872,0.43C236.986,440.797,236.67,440.845,236.361,440.845z"/>
				<path style="fill:#FFFFFF;" d="M239.516,432.771h1.61l1.633,4.754l0.287,1.015h0.088l0.309-1.015l1.699-4.754h1.61l-2.879,7.897
					h-1.566L239.516,432.771z"/>
				<path style="fill:#FFFFFF;" d="M251.097,436.334h3.871c0.022,0.089,0.04,0.195,0.055,0.32c0.015,0.125,0.023,0.25,0.023,0.375
					c0,0.507-0.078,0.985-0.232,1.434c-0.154,0.449-0.397,0.849-0.728,1.202c-0.353,0.375-0.775,0.666-1.268,0.871
					c-0.493,0.206-1.055,0.309-1.688,0.309c-0.574,0-1.114-0.103-1.621-0.309c-0.507-0.206-0.949-0.492-1.324-0.86
					c-0.375-0.367-0.673-0.803-0.894-1.307c-0.22-0.504-0.331-1.053-0.331-1.649c0-0.595,0.11-1.145,0.331-1.649
					c0.221-0.504,0.518-0.939,0.894-1.307c0.375-0.367,0.816-0.654,1.324-0.86c0.507-0.206,1.047-0.309,1.621-0.309
					c0.64,0,1.211,0.11,1.715,0.331c0.504,0.221,0.936,0.526,1.296,0.915l-1.026,1.004c-0.257-0.272-0.544-0.48-0.861-0.623
					c-0.316-0.143-0.694-0.215-1.136-0.215c-0.36,0-0.702,0.065-1.026,0.193c-0.323,0.129-0.607,0.311-0.849,0.546
					c-0.243,0.235-0.436,0.52-0.579,0.855c-0.143,0.335-0.215,0.708-0.215,1.119c0,0.412,0.072,0.785,0.215,1.12
					c0.143,0.335,0.338,0.62,0.585,0.855c0.246,0.235,0.531,0.418,0.854,0.546c0.324,0.129,0.669,0.193,1.037,0.193
					c0.419,0,0.774-0.061,1.064-0.182c0.29-0.121,0.539-0.278,0.745-0.469c0.147-0.132,0.274-0.3,0.38-0.502
					c0.107-0.202,0.189-0.428,0.248-0.678h-2.482V436.334z"/>
			</g>
			<g>
				<path style="fill:#FFFFFF;" d="M297.3,431.299c-0.006-1.224-0.959-2.121-2.189-2.14c-0.924-0.014-0.832,0.12-0.834-0.867
					c-0.003-1.097-0.007-2.194,0.003-3.292c0.003-0.379-0.112-0.691-0.362-0.976c-2.342-2.668-4.678-5.342-7.019-8.011
					c-0.12-0.137-0.275-0.244-0.414-0.366c-6.214,0-12.427,0-18.641,0c-0.794,0.293-1.14,0.868-1.138,1.709
					c0.01,3.748,0.004,7.496,0.004,11.243c0,0.556-0.003,0.589-0.55,0.551c-1.497-0.102-2.516,0.986-2.497,2.492
					c0.044,3.476,0.013,6.953,0.014,10.429c0.001,1.58,0.867,2.443,2.45,2.449c0.582,0.002,0.582,0.002,0.582,0.6
					c0,2.219-0.001,4.438,0.001,6.657c0.001,1.192,0.58,1.771,1.768,1.771c8.013,0.001,16.027,0.001,24.04,0
					c1.168,0,1.755-0.583,1.757-1.745c0.002-2.256,0-4.512,0.001-6.768c0-0.512,0.002-0.511,0.52-0.515
					c0.271-0.002,0.541,0.008,0.809-0.058c0.996-0.246,1.69-1.044,1.694-2.069C297.315,438.696,297.318,434.997,297.3,431.299z
					 M268.85,417.162c5.337,0,10.674,0,16.01,0c0.548,0,0.554,0.007,0.554,0.561c0.001,2.243-0.001,4.486,0.001,6.73
					c0.001,0.811,0.249,1.059,1.06,1.059c1.91,0.001,3.821,0,5.731,0.001c0.458,0,0.479,0.021,0.481,0.483
					c0.003,0.887,0.002,1.775,0,2.662c-0.001,0.477-0.024,0.498-0.504,0.499c-3.895,0.001-7.79,0-11.684,0
					c-3.882,0-7.765,0-11.647,0c-0.55,0-0.552-0.001-0.552-0.561c-0.001-3.624-0.001-7.247,0-10.871
					C268.299,417.166,268.303,417.162,268.85,417.162z M292.135,451.579c-3.883,0.001-7.766,0-11.65,0c-3.871,0-7.742,0-11.613,0
					c-0.572,0-0.574-0.002-0.574-0.579c-0.001-1.997-0.001-3.994,0.001-5.991c0-0.464,0.023-0.486,0.478-0.487
					c7.803-0.001,15.607-0.001,23.41,0c0.478,0,0.499,0.02,0.499,0.503c0.001,1.997,0.001,3.994,0,5.991
					C292.687,451.574,292.682,451.579,292.135,451.579z"/>
			</g>
			<g>
				<path style="fill:#FFFFFF;" d="M272.966,434.183v1.831h3.165v1.412h-3.165v1.831h3.518v1.412h-5.007v-7.897h5.007v1.412H272.966
					z"/>
				<path style="fill:#FFFFFF;" d="M277.852,440.669v-7.897h2.779c0.375,0,0.726,0.061,1.053,0.182
					c0.327,0.121,0.612,0.292,0.855,0.513c0.243,0.221,0.434,0.483,0.574,0.789c0.14,0.305,0.209,0.642,0.209,1.009
					c0,0.375-0.07,0.715-0.209,1.02c-0.14,0.305-0.331,0.568-0.574,0.789c-0.243,0.221-0.528,0.392-0.855,0.513
					c-0.327,0.121-0.678,0.182-1.053,0.182h-1.29v2.901H277.852z M280.653,436.356c0.389,0,0.684-0.111,0.882-0.331
					c0.199-0.22,0.298-0.474,0.298-0.761c0-0.14-0.024-0.276-0.072-0.408c-0.048-0.132-0.121-0.248-0.221-0.347
					c-0.099-0.099-0.222-0.178-0.37-0.237c-0.147-0.059-0.32-0.089-0.518-0.089h-1.312v2.173H280.653z"/>
				<path style="fill:#FFFFFF;" d="M286.797,440.845c-0.338,0-0.662-0.048-0.971-0.143c-0.309-0.095-0.592-0.239-0.849-0.43
					c-0.257-0.191-0.482-0.425-0.673-0.7c-0.191-0.276-0.342-0.597-0.452-0.965l1.401-0.551c0.103,0.397,0.283,0.726,0.541,0.987
					c0.257,0.261,0.595,0.392,1.015,0.392c0.154,0,0.303-0.02,0.447-0.061c0.143-0.04,0.272-0.099,0.386-0.176
					c0.114-0.077,0.204-0.175,0.27-0.292c0.066-0.118,0.1-0.254,0.1-0.408c0-0.147-0.026-0.279-0.077-0.397
					c-0.051-0.117-0.138-0.227-0.259-0.331c-0.121-0.103-0.279-0.202-0.474-0.298c-0.195-0.095-0.436-0.195-0.723-0.298
					l-0.485-0.176c-0.213-0.073-0.428-0.173-0.645-0.298c-0.217-0.125-0.414-0.276-0.59-0.452c-0.176-0.176-0.322-0.384-0.436-0.623
					c-0.114-0.239-0.171-0.509-0.171-0.81c0-0.309,0.061-0.597,0.182-0.866c0.121-0.268,0.294-0.503,0.518-0.706
					c0.224-0.202,0.493-0.36,0.805-0.474c0.312-0.114,0.66-0.171,1.042-0.171c0.397,0,0.741,0.053,1.031,0.16
					c0.29,0.107,0.537,0.243,0.739,0.408c0.202,0.165,0.365,0.348,0.491,0.546c0.125,0.199,0.217,0.386,0.276,0.563l-1.312,0.551
					c-0.074-0.221-0.208-0.419-0.403-0.596c-0.195-0.176-0.462-0.265-0.799-0.265c-0.324,0-0.592,0.075-0.805,0.226
					c-0.213,0.151-0.32,0.348-0.32,0.59c0,0.235,0.103,0.436,0.309,0.601c0.206,0.165,0.533,0.325,0.982,0.48l0.496,0.165
					c0.316,0.111,0.605,0.237,0.866,0.381c0.261,0.143,0.485,0.314,0.673,0.513c0.187,0.199,0.331,0.425,0.43,0.678
					c0.099,0.254,0.149,0.546,0.149,0.877c0,0.412-0.083,0.767-0.248,1.064c-0.165,0.298-0.377,0.542-0.634,0.734
					c-0.258,0.191-0.548,0.335-0.872,0.43C287.422,440.797,287.105,440.845,286.797,440.845z"/>
			</g>
			<g>
				<path style="fill:#FFFFFF;" d="M321.394,439.168l4.004-4.985h-3.827v-1.412h5.559v1.5l-3.96,4.985h4.004v1.412h-5.779V439.168z"
					/>
				<path style="fill:#FFFFFF;" d="M328.409,432.771h1.489v7.897h-1.489V432.771z"/>
				<path style="fill:#FFFFFF;" d="M331.486,440.669v-7.897h2.779c0.375,0,0.726,0.061,1.053,0.182
					c0.327,0.121,0.612,0.292,0.855,0.513s0.434,0.483,0.574,0.789c0.14,0.305,0.209,0.642,0.209,1.009
					c0,0.375-0.07,0.715-0.209,1.02c-0.14,0.305-0.331,0.568-0.574,0.789c-0.243,0.221-0.528,0.392-0.855,0.513
					c-0.327,0.121-0.678,0.182-1.053,0.182h-1.29v2.901H331.486z M334.288,436.356c0.389,0,0.684-0.111,0.882-0.331
					c0.199-0.22,0.298-0.474,0.298-0.761c0-0.14-0.024-0.276-0.072-0.408c-0.048-0.132-0.121-0.248-0.221-0.347
					c-0.099-0.099-0.222-0.178-0.37-0.237c-0.147-0.059-0.32-0.089-0.518-0.089h-1.312v2.173H334.288z"/>
			</g>
		</g>
		<g style="opacity:0.61;">
			<path style="fill:#FFFFFF;" d="M300.133,433.27h9.067v2.242h-9.067V433.27z M300.133,437.136h9.067v2.243h-9.067V437.136z"/>
		</g>
	</g>
	<g style="opacity:0.61;">
		<path style="fill:#FFFFFF;" d="M156.756,478.878h1.607c1.263,0,2.114,0.812,2.114,1.974c0,1.161-0.851,1.973-2.114,1.973h-1.607
			V478.878z M158.34,482.464c1.049,0,1.725-0.665,1.725-1.612c0-0.947-0.677-1.613-1.725-1.613h-1.167v3.225H158.34z"/>
		<path style="fill:#FFFFFF;" d="M165.139,480.851c0-1.15,0.879-2.007,2.075-2.007c1.184,0,2.069,0.851,2.069,2.007
			c0,1.156-0.885,2.007-2.069,2.007C166.019,482.858,165.139,482.002,165.139,480.851z M168.866,480.851
			c0-0.942-0.705-1.635-1.652-1.635c-0.953,0-1.663,0.693-1.663,1.635c0,0.941,0.71,1.635,1.663,1.635
			C168.162,482.486,168.866,481.793,168.866,480.851z"/>
		<path style="fill:#FFFFFF;" d="M179.596,478.878l-1.331,3.947h-0.44l-1.156-3.366l-1.161,3.366h-0.434l-1.331-3.947h0.429
			l1.139,3.394l1.178-3.394h0.389l1.161,3.411l1.156-3.411H179.596z"/>
		<path style="fill:#FFFFFF;" d="M187.731,478.878v3.947h-0.344l-2.537-3.202v3.202h-0.417v-3.947h0.344l2.543,3.203v-3.203H187.731
			z"/>
		<path style="fill:#FFFFFF;" d="M193.093,478.878h0.417v3.586h2.21v0.361h-2.627V478.878z"/>
		<path style="fill:#FFFFFF;" d="M200.061,480.851c0-1.15,0.879-2.007,2.075-2.007c1.184,0,2.069,0.851,2.069,2.007
			c0,1.156-0.885,2.007-2.069,2.007C200.941,482.858,200.061,482.002,200.061,480.851z M203.788,480.851
			c0-0.942-0.705-1.635-1.652-1.635c-0.953,0-1.663,0.693-1.663,1.635c0,0.941,0.71,1.635,1.663,1.635
			C203.083,482.486,203.788,481.793,203.788,480.851z"/>
		<path style="fill:#FFFFFF;" d="M211.636,481.77h-2.199l-0.474,1.054h-0.434l1.804-3.947h0.412l1.804,3.947h-0.44L211.636,481.77z
			 M211.484,481.432l-0.947-2.12l-0.947,2.12H211.484z"/>
		<path style="fill:#FFFFFF;" d="M217.28,478.878h1.607c1.263,0,2.114,0.812,2.114,1.974c0,1.161-0.851,1.973-2.114,1.973h-1.607
			V478.878z M218.864,482.464c1.049,0,1.725-0.665,1.725-1.612c0-0.947-0.677-1.613-1.725-1.613h-1.167v3.225H218.864z"/>
		<path style="fill:#FFFFFF;" d="M234.041,481.77h-2.199l-0.474,1.054h-0.434l1.804-3.947h0.412l1.804,3.947h-0.44L234.041,481.77z
			 M233.889,481.432l-0.947-2.12l-0.947,2.12H233.889z"/>
		<path style="fill:#FFFFFF;" d="M239.685,478.878h0.417v3.586h2.21v0.361h-2.627V478.878z"/>
		<path style="fill:#FFFFFF;" d="M247.082,478.878h0.417v3.586h2.21v0.361h-2.627V478.878z"/>
		<path style="fill:#FFFFFF;" d="M260.449,479.239v1.551h2.041v0.361h-2.041v1.675h-0.417v-3.947h2.706v0.361H260.449z"/>
		<path style="fill:#FFFFFF;" d="M267.678,478.878h0.417v3.947h-0.417V478.878z"/>
		<path style="fill:#FFFFFF;" d="M273.456,478.878h0.417v3.586h2.21v0.361h-2.627V478.878z"/>
		<path style="fill:#FFFFFF;" d="M283.644,482.464v0.361h-2.791v-3.947h2.706v0.361h-2.289v1.404h2.041v0.355h-2.041v1.466H283.644z
			"/>
		<path style="fill:#FFFFFF;" d="M294.672,479.239v1.551h2.041v0.361h-2.041v1.675h-0.417v-3.947h2.706v0.361H294.672z"/>
		<path style="fill:#FFFFFF;" d="M301.5,480.851c0-1.15,0.879-2.007,2.075-2.007c1.184,0,2.069,0.851,2.069,2.007
			c0,1.156-0.885,2.007-2.069,2.007C302.379,482.858,301.5,482.002,301.5,480.851z M305.226,480.851
			c0-0.942-0.705-1.635-1.652-1.635c-0.953,0-1.663,0.693-1.663,1.635c0,0.941,0.71,1.635,1.663,1.635
			C304.522,482.486,305.226,481.793,305.226,480.851z"/>
		<path style="fill:#FFFFFF;" d="M313.351,482.825l-0.902-1.269c-0.102,0.011-0.203,0.017-0.316,0.017h-1.06v1.252h-0.417v-3.947
			h1.477c1.004,0,1.613,0.507,1.613,1.353c0,0.62-0.327,1.054-0.902,1.24l0.964,1.353H313.351z M313.328,480.231
			c0-0.632-0.417-0.992-1.207-0.992h-1.048v1.979h1.048C312.911,481.218,313.328,480.851,313.328,480.231z"/>
		<path style="fill:#FFFFFF;" d="M322.907,478.878v3.947h-0.4v-3.158l-1.551,2.656h-0.197l-1.551-2.639v3.14h-0.4v-3.947h0.344
			l1.714,2.926l1.697-2.926H322.907z"/>
		<path style="fill:#FFFFFF;" d="M330.744,481.77h-2.199l-0.473,1.054h-0.434l1.804-3.947h0.411l1.804,3.947h-0.44L330.744,481.77z
			 M330.592,481.432l-0.947-2.12l-0.947,2.12H330.592z"/>
		<path style="fill:#FFFFFF;" d="M336.957,479.239h-1.387v-0.361h3.192v0.361h-1.387v3.586h-0.417V479.239z"/>
		<path style="fill:#FFFFFF;" d="M343.063,482.346l0.164-0.321c0.282,0.276,0.784,0.479,1.302,0.479c0.739,0,1.06-0.31,1.06-0.699
			c0-1.083-2.43-0.417-2.43-1.877c0-0.581,0.451-1.083,1.455-1.083c0.446,0,0.908,0.13,1.224,0.35l-0.141,0.333
			c-0.338-0.22-0.733-0.327-1.083-0.327c-0.722,0-1.043,0.321-1.043,0.716c0,1.083,2.43,0.429,2.43,1.866
			c0,0.581-0.462,1.077-1.472,1.077C343.937,482.858,343.356,482.65,343.063,482.346z"/>
	</g>
</g>
<g>
</g>
<g>
	<polygon style="fill:#231F20;" points="24.074,273.186 24.074,259.874 31.913,259.874 31.913,262.276 26.923,262.276 
		26.923,265.013 31.913,265.013 31.913,267.433 26.923,267.433 26.923,273.186 	"/>
	<polygon style="fill:#231F20;" points="39.159,273.186 39.159,259.874 46.997,259.874 46.997,262.276 42.007,262.276 
		42.007,265.013 46.997,265.013 46.997,267.433 42.007,267.433 42.007,270.766 46.997,270.766 46.997,273.186 	"/>
	<path style="fill:#231F20;" d="M54.835,273.186v-13.312h3.63c1.431,0,2.557,0.099,3.379,0.301c0.825,0.199,1.548,0.534,2.172,0.999
		c0.807,0.599,1.418,1.356,1.831,2.268c0.416,0.912,0.624,1.952,0.624,3.116c0,1.182-0.211,2.228-0.636,3.14
		c-0.425,0.912-1.046,1.667-1.862,2.259c-0.608,0.438-1.281,0.751-2.023,0.943c-0.742,0.189-1.828,0.285-3.258,0.285h-1.008H54.835z
		 M57.684,270.784h1.583c1.489,0,2.579-0.338,3.258-1.018c0.683-0.679,1.024-1.753,1.024-3.227c0-1.468-0.341-2.541-1.024-3.221
		c-0.68-0.683-1.769-1.024-3.258-1.024h-1.583V270.784z"/>
	<polygon style="fill:#231F20;" points="73.904,273.186 73.904,259.874 81.742,259.874 81.742,262.276 76.752,262.276 
		76.752,265.013 81.742,265.013 81.742,267.433 76.752,267.433 76.752,270.766 81.742,270.766 81.742,273.186 	"/>
	<path style="fill:#231F20;" d="M92.429,265.553h0.428c1.148,0,1.908-0.127,2.278-0.378c0.369-0.251,0.552-0.689,0.552-1.313
		c0-0.655-0.199-1.12-0.596-1.396c-0.394-0.276-1.139-0.413-2.234-0.413h-0.428V265.553z M99.206,273.186h-3.283l-3.494-6.216v6.216
		h-2.848v-13.312h4.077c1.617,0,2.827,0.314,3.634,0.943c0.804,0.627,1.207,1.57,1.207,2.833c0,0.915-0.276,1.697-0.825,2.346
		c-0.552,0.652-1.263,1.03-2.135,1.139L99.206,273.186z"/>
	<path style="fill:#231F20;" d="M104.329,273.186l5.067-13.312h3.255l5.138,13.312h-3.236l-1.083-2.83h-5.157l-0.928,2.83H104.329z
		 M112.807,268.122l-1.492-4.301c-0.04-0.127-0.096-0.348-0.161-0.655c-0.068-0.31-0.137-0.689-0.211-1.139
		c-0.078,0.431-0.155,0.819-0.227,1.16c-0.071,0.344-0.127,0.571-0.165,0.686l-1.437,4.248H112.807z"/>
	<polygon style="fill:#231F20;" points="124.233,273.186 124.233,259.874 127.081,259.874 127.081,270.766 131.624,270.766 
		131.624,273.186 	"/>
	<polygon style="fill:#231F20;" points="154.872,262.295 154.872,273.186 152.024,273.186 152.024,262.295 148.766,262.295 
		148.766,259.874 158.131,259.874 158.131,262.295 	"/>
	<path style="fill:#231F20;" d="M162.441,273.186l5.067-13.312h3.255l5.138,13.312h-3.236l-1.083-2.83h-5.157l-0.928,2.83H162.441z
		 M170.919,268.122l-1.492-4.301c-0.04-0.127-0.096-0.348-0.161-0.655c-0.068-0.31-0.137-0.689-0.211-1.139
		c-0.077,0.431-0.155,0.819-0.227,1.16c-0.071,0.344-0.127,0.571-0.165,0.686l-1.437,4.248H170.919z"/>
	<path style="fill:#231F20;" d="M185.845,263.356c0.146,0.248,0.261,0.469,0.348,0.661c0.084,0.189,0.158,0.391,0.227,0.605
		c0.078-0.221,0.164-0.434,0.264-0.645c0.096-0.214,0.214-0.438,0.354-0.674l1.88-3.429h3.019l-3.972,6.346l4.099,6.966h-3.072
		l-1.974-3.693c-0.121-0.223-0.23-0.456-0.323-0.698c-0.093-0.245-0.18-0.5-0.258-0.767c-0.102,0.317-0.208,0.599-0.31,0.847
		c-0.102,0.248-0.202,0.463-0.301,0.646l-1.971,3.665h-3.056l4.112-6.966l-4-6.346h3.035L185.845,263.356z"/>
	<path style="fill:#231F20;" d="M202.704,273.186l5.067-13.312h3.255l5.138,13.312h-3.236l-1.083-2.83h-5.157l-0.928,2.83H202.704z
		 M211.181,268.122l-1.493-4.301c-0.04-0.127-0.096-0.348-0.161-0.655c-0.068-0.31-0.137-0.689-0.211-1.139
		c-0.078,0.431-0.155,0.819-0.227,1.16c-0.071,0.344-0.127,0.571-0.165,0.686l-1.437,4.248H211.181z"/>
	<path style="fill:#231F20;" d="M233.732,259.874v8.288c0,1.803-0.475,3.153-1.427,4.043c-0.953,0.891-2.386,1.334-4.304,1.334
		c-1.946,0-3.395-0.444-4.348-1.334c-0.953-0.891-1.427-2.24-1.427-4.043v-8.288h2.83v7.841c0,1.099,0.242,1.924,0.726,2.479
		c0.487,0.555,1.21,0.832,2.175,0.832c0.968,0,1.703-0.279,2.2-0.838c0.496-0.558,0.745-1.381,0.745-2.473v-7.841H233.732z"/>
	<polygon style="fill:#231F20;" points="246.693,262.295 246.693,273.186 243.845,273.186 243.845,262.295 240.586,262.295 
		240.586,259.874 249.951,259.874 249.951,262.295 	"/>
	<polygon style="fill:#231F20;" points="256.862,273.186 256.862,259.874 259.711,259.874 259.711,265.218 265.483,265.218 
		265.483,259.874 268.331,259.874 268.331,273.186 265.483,273.186 265.483,267.619 259.711,267.619 259.711,273.186 	"/>
	<path style="fill:#231F20;" d="M282.876,271.008c1.207,0,2.203-0.422,2.988-1.269c0.785-0.844,1.179-1.902,1.179-3.178
		c0-1.26-0.397-2.321-1.192-3.181c-0.794-0.86-1.787-1.291-2.976-1.291c-1.207,0-2.206,0.428-3.001,1.288
		c-0.794,0.856-1.192,1.918-1.192,3.184c0,1.285,0.391,2.349,1.173,3.187C280.638,270.589,281.647,271.008,282.876,271.008
		 M289.966,266.558c0,0.953-0.177,1.853-0.531,2.7c-0.357,0.85-0.866,1.595-1.533,2.237c-0.689,0.661-1.468,1.167-2.336,1.517
		c-0.866,0.351-1.763,0.528-2.69,0.528c-0.81,0-1.608-0.136-2.383-0.413c-0.779-0.276-1.493-0.673-2.141-1.188
		c-0.838-0.667-1.477-1.461-1.924-2.389c-0.444-0.928-0.667-1.924-0.667-2.991c0-0.959,0.177-1.856,0.527-2.697
		c0.351-0.838,0.866-1.586,1.546-2.24c0.667-0.648,1.44-1.151,2.321-1.508c0.881-0.357,1.79-0.537,2.722-0.537
		c0.928,0,1.831,0.18,2.706,0.537c0.875,0.357,1.648,0.86,2.321,1.508c0.673,0.655,1.186,1.403,1.536,2.247
		C289.789,264.709,289.966,265.605,289.966,266.558z"/>
	<path style="fill:#231F20;" d="M300.262,265.553h0.428c1.148,0,1.908-0.127,2.278-0.378c0.369-0.251,0.552-0.689,0.552-1.313
		c0-0.655-0.199-1.12-0.596-1.396c-0.394-0.276-1.139-0.413-2.234-0.413h-0.428V265.553z M307.039,273.186h-3.283l-3.494-6.216
		v6.216h-2.848v-13.312h4.077c1.617,0,2.827,0.314,3.634,0.943c0.804,0.627,1.207,1.57,1.207,2.833c0,0.915-0.276,1.697-0.825,2.346
		c-0.552,0.652-1.263,1.03-2.135,1.139L307.039,273.186z"/>
	<rect x="313.801" y="259.874" style="fill:#231F20;" width="2.849" height="13.312"/>
	<polygon style="fill:#231F20;" points="329.702,262.295 329.702,273.186 326.853,273.186 326.853,262.295 323.595,262.295 
		323.595,259.874 332.96,259.874 332.96,262.295 	"/>
	<path style="fill:#231F20;" d="M342.608,273.186v-6.076l-4.506-7.236h3.333l1.974,3.646c0.096,0.183,0.199,0.413,0.301,0.692
		c0.102,0.279,0.208,0.599,0.32,0.962c0.084-0.307,0.18-0.599,0.285-0.872c0.105-0.273,0.227-0.54,0.36-0.801l1.958-3.627h3.329
		l-4.505,7.236v6.076H342.608z"/>
	<path style="fill:#231F20;" d="M45.095,240.716h-4.219v-4.83h-3.061v3.65v0.471c0,0.225-0.027,0.375-0.076,0.457
		c-0.048,0.082-0.11,0.136-0.179,0.17c-0.076,0.034-0.138,0.061-0.193,0.068c-0.048,0.007-0.104,0.014-0.159,0.014
		c-0.035,0-0.083,0-0.152,0c-0.097,0-0.179,0-0.241,0h-8.783h-0.227c-0.165,0-0.283-0.021-0.351-0.068
		c-0.172-0.068-0.283-0.198-0.324-0.389c-0.048-0.184-0.069-0.423-0.069-0.723v-3.65H24v5.56c0,0.505,0.021,0.866,0.069,1.071
		c0.083,0.355,0.248,0.641,0.51,0.866c0.179,0.15,0.365,0.252,0.558,0.293c0.186,0.048,0.434,0.068,0.738,0.068h0.503h18.717
		V240.716z M32.293,245.26c-0.372,0-0.669,0.137-0.889,0.409c-0.221,0.273-0.331,0.573-0.331,0.914c0,0.348,0.117,0.655,0.358,0.928
		c0.234,0.273,0.558,0.409,0.958,0.409h0.138c0.386,0,0.683-0.13,0.903-0.396c0.221-0.259,0.331-0.566,0.331-0.914
		c0-0.355-0.11-0.662-0.338-0.921c-0.249-0.286-0.579-0.43-0.979-0.43H32.293z"/>
	<rect x="41.786" y="240.757" style="fill:#231F20;" width="7.363" height="3.029"/>
	<rect x="47.798" y="240.757" style="fill:#231F20;" width="7.363" height="3.029"/>
	<path style="fill:#231F20;" d="M56.084,234.126l-0.042,0.778h2.517h0.179c0.145,0,0.234-0.027,0.269-0.082
		c0.035-0.061,0.055-0.17,0.055-0.341v-0.355h-1.124c-0.152,0-0.296-0.048-0.434-0.136c-0.138-0.096-0.214-0.211-0.221-0.348v-0.055
		c0-0.15,0.069-0.28,0.207-0.396c0.138-0.116,0.289-0.171,0.448-0.171h1.124v-0.737h-1.131c-0.338,0-0.627,0.068-0.882,0.211
		c-0.262,0.143-0.413,0.348-0.469,0.621v0.225c0,0.3,0.089,0.566,0.269,0.785H56.084z M53.809,243.786h3.199h0.71
		c0.262,0,0.489-0.034,0.675-0.095c0.186-0.061,0.358-0.177,0.51-0.341c0.111-0.136,0.179-0.273,0.221-0.409
		c0.041-0.136,0.062-0.293,0.062-0.457v-0.778v-5.778h-3.061v3.65v0.471c0,0.17-0.021,0.307-0.062,0.416
		c-0.041,0.109-0.11,0.184-0.207,0.225c-0.096,0.048-0.214,0.068-0.338,0.068c-0.035,0-0.083,0-0.145,0c-0.103,0-0.179,0-0.234,0
		h-1.331V243.786z"/>
	<rect x="63.371" y="226.103" style="fill:#231F20;" width="3.061" height="17.683"/>
	<path style="fill:#231F20;" d="M78.048,243.745v-3.029h-3.723v-4.83h-3.061v8.548v0.846c0,0.328-0.034,0.593-0.096,0.798
		c-0.062,0.198-0.186,0.382-0.386,0.546c-0.193,0.164-0.413,0.273-0.648,0.321c-0.241,0.048-0.524,0.075-0.841,0.075h-0.352h-0.986
		v2.947h1.689c0.91,0,1.668-0.123,2.282-0.362c0.696-0.28,1.282-0.737,1.758-1.371c0.282-0.389,0.476-0.805,0.579-1.262
		c0.083-0.348,0.124-0.805,0.124-1.371c0-0.171-0.007-0.341-0.027-0.512c-0.021-0.171-0.035-0.348-0.035-0.525v-0.157v-0.662H78.048
		z"/>
	<rect x="74.78" y="240.757" style="fill:#231F20;" width="7.363" height="3.029"/>
	<rect x="80.792" y="240.757" style="fill:#231F20;" width="7.363" height="3.029"/>
	<rect x="86.803" y="240.757" style="fill:#231F20;" width="7.363" height="3.029"/>
	<path style="fill:#231F20;" d="M103.121,228.846c-0.386,0-0.696,0.129-0.917,0.396c-0.221,0.259-0.331,0.566-0.331,0.914
		c0,0.355,0.117,0.669,0.358,0.942c0.241,0.273,0.565,0.409,0.972,0.409h0.138c0.4,0,0.717-0.143,0.951-0.43
		c0.207-0.246,0.31-0.546,0.31-0.894c0-0.348-0.11-0.648-0.338-0.908c-0.255-0.286-0.593-0.43-1.006-0.43H103.121z M97.902,240.716
		l0.042-2.408c0-0.314,0.083-0.614,0.241-0.908c0.138-0.246,0.345-0.491,0.614-0.75c0.29-0.252,0.586-0.443,0.896-0.573
		c0.303-0.13,0.648-0.191,1.027-0.191h6.791c0.448,0,0.834,0.055,1.165,0.17c0.324,0.116,0.621,0.314,0.869,0.594
		c0.2,0.239,0.345,0.491,0.428,0.75c0.089,0.259,0.131,0.559,0.131,0.908v2.408H97.902z M92.856,240.716l-0.083,3.07h23.998v-3.07
		h-3.605v-2.538c0-0.832-0.172-1.562-0.517-2.21c-0.303-0.566-0.8-1.139-1.482-1.719c-0.565-0.464-1.089-0.805-1.586-1.016
		c-0.579-0.252-1.206-0.375-1.882-0.375h-5.212c-0.599,0-1.103,0.048-1.496,0.143c-0.4,0.095-0.862,0.28-1.386,0.546
		c-0.379,0.211-0.682,0.409-0.924,0.607c-0.241,0.198-0.482,0.457-0.737,0.778v-2.074h-3.061v7.859H92.856z"/>
	<rect x="114.013" y="240.757" style="fill:#231F20;" width="7.363" height="3.029"/>
	<polygon style="fill:#231F20;" points="120.011,243.786 131.413,243.786 131.413,240.757 127.181,240.757 127.181,226.103 
		124.12,226.103 124.12,240.757 120.011,240.757 	"/>
	<rect x="128.077" y="240.757" style="fill:#231F20;" width="7.363" height="3.029"/>
	<polygon style="fill:#231F20;" points="134.088,240.757 134.047,243.786 141.161,243.786 141.161,226.103 138.1,226.103 
		138.1,240.757 	"/>
	<path style="fill:#231F20;" d="M154.529,229.173c-0.379,0-0.682,0.137-0.896,0.403c-0.214,0.266-0.324,0.573-0.324,0.928
		c0,0.362,0.117,0.682,0.358,0.955c0.234,0.28,0.558,0.416,0.958,0.416h0.138c0.393,0,0.696-0.137,0.91-0.403
		c0.214-0.266,0.324-0.58,0.324-0.941c0-0.355-0.11-0.662-0.338-0.921c-0.248-0.294-0.579-0.437-0.979-0.437H154.529z
		 M158.113,229.214c-0.386,0-0.696,0.13-0.917,0.389c-0.221,0.259-0.331,0.566-0.331,0.914c0,0.362,0.117,0.675,0.358,0.948
		c0.242,0.273,0.565,0.409,0.972,0.409h0.138c0.4,0,0.71-0.13,0.931-0.396c0.22-0.266,0.331-0.573,0.331-0.921
		c0-0.348-0.111-0.655-0.338-0.914c-0.255-0.286-0.593-0.43-1.006-0.43H158.113z M160.382,237.892v2.824h-4.66
		c-0.386,0-0.737-0.137-1.041-0.402c-0.31-0.266-0.462-0.587-0.462-0.948c0-0.402,0.145-0.75,0.441-1.037
		c0.289-0.293,0.648-0.436,1.062-0.436H160.382z M167.944,240.716h-4.171v-7.832h-3.392v1.856h-4.791
		c-1.303,0-2.441,0.45-3.419,1.344c-0.979,0.894-1.468,1.971-1.468,3.227v0.184c0,1.221,0.496,2.258,1.489,3.104
		c0.958,0.819,2.089,1.228,3.392,1.228h4.281l0.496-0.614l0.434,0.614h7.149V240.716z"/>
	<rect x="164.58" y="240.757" style="fill:#231F20;" width="7.363" height="3.029"/>
	<path style="fill:#231F20;" d="M170.592,243.786h5.467h0.703c0.269,0,0.496-0.034,0.689-0.095c0.186-0.061,0.358-0.177,0.51-0.348
		c0.11-0.13,0.179-0.266,0.22-0.409c0.041-0.137,0.062-0.294,0.062-0.457v-0.778v-5.813h-3.061v3.684v0.471
		c0,0.171-0.021,0.314-0.062,0.416c-0.041,0.109-0.11,0.191-0.207,0.232c-0.103,0.048-0.214,0.068-0.338,0.068
		c-0.035,0-0.09,0-0.152,0c-0.097,0-0.179,0-0.242,0h-3.592V243.786z M172.735,244.973c-0.379,0-0.683,0.13-0.903,0.396
		c-0.221,0.259-0.331,0.573-0.331,0.928c0,0.348,0.117,0.655,0.358,0.928c0.234,0.273,0.558,0.409,0.958,0.409h0.138
		c0.393,0,0.696-0.13,0.91-0.396c0.214-0.259,0.324-0.566,0.324-0.914c0-0.355-0.111-0.662-0.338-0.921
		c-0.248-0.287-0.579-0.43-0.979-0.43H172.735z M176.306,244.973c-0.386,0-0.696,0.13-0.917,0.396
		c-0.221,0.259-0.331,0.573-0.331,0.928c0,0.348,0.117,0.655,0.358,0.928c0.242,0.273,0.565,0.409,0.972,0.409h0.138
		c0.4,0,0.71-0.13,0.931-0.396c0.221-0.259,0.331-0.566,0.331-0.914c0-0.355-0.111-0.662-0.338-0.921
		c-0.255-0.287-0.593-0.43-1.006-0.43H176.306z"/>
	<path style="fill:#231F20;" d="M187.447,238.813v1.903h-6.425v3.07h7.059h0.807c0.269,0,0.51-0.034,0.71-0.095
		c0.2-0.061,0.386-0.177,0.545-0.348c0.145-0.171,0.241-0.341,0.29-0.525c0.048-0.184,0.076-0.402,0.076-0.648v-0.682v-3.063
		c0-0.798-0.124-1.494-0.366-2.087c-0.241-0.6-0.634-1.18-1.186-1.753c-0.614-0.662-1.324-1.126-2.13-1.392
		c-0.689-0.225-1.565-0.334-2.647-0.334h-3.158v3.029h2.137h0.551c0.669,0,1.165,0.034,1.475,0.109
		c0.483,0.102,0.896,0.334,1.261,0.682c0.317,0.3,0.558,0.628,0.724,0.976c0.165,0.348,0.248,0.737,0.248,1.16H187.447z"/>
	<polygon style="fill:#231F20;" points="204.358,240.757 198.119,240.757 198.119,226.103 195.058,226.103 195.058,243.786 
		204.358,243.786 	"/>
	<path style="fill:#231F20;" d="M202.393,243.786h20.62v-3.07h-3.647v-2.9c0-0.723-0.131-1.351-0.393-1.89
		c-0.262-0.539-0.662-1.071-1.2-1.596c-0.593-0.573-1.248-0.969-1.958-1.194c-0.607-0.184-1.399-0.28-2.392-0.28h-6.301v3.029h6.384
		c0.462,0,0.862,0.055,1.193,0.157c0.331,0.102,0.641,0.293,0.917,0.58c0.255,0.259,0.428,0.553,0.531,0.88
		c0.103,0.334,0.159,0.709,0.159,1.126v2.088h-13.912V243.786z"/>
	<rect x="220.228" y="240.757" style="fill:#231F20;" width="7.363" height="3.029"/>
	<path style="fill:#231F20;" d="M228.025,232.202c-0.386,0-0.696,0.137-0.917,0.402c-0.221,0.266-0.331,0.58-0.331,0.935
		c0,0.355,0.117,0.669,0.358,0.948c0.241,0.28,0.565,0.416,0.972,0.416h0.138c0.4,0,0.71-0.137,0.93-0.402
		c0.221-0.266,0.331-0.58,0.331-0.935c0-0.355-0.11-0.662-0.338-0.928c-0.255-0.294-0.593-0.437-1.007-0.437H228.025z
		 M231.637,232.202c-0.4,0-0.71,0.137-0.931,0.402c-0.221,0.266-0.331,0.58-0.331,0.935c0,0.355,0.117,0.669,0.358,0.948
		c0.241,0.28,0.572,0.416,0.986,0.416h0.138c0.386,0,0.697-0.137,0.917-0.402c0.221-0.266,0.331-0.58,0.331-0.935
		c0-0.355-0.11-0.662-0.338-0.928c-0.255-0.294-0.586-0.437-0.993-0.437H231.637z M226.239,243.786h4.226h0.731
		c0.269,0,0.496-0.034,0.676-0.095c0.186-0.061,0.352-0.177,0.496-0.341c0.111-0.136,0.179-0.273,0.221-0.409
		c0.041-0.136,0.062-0.293,0.062-0.457v-0.778v-5.778h-3.061v3.684v0.471c0,0.171-0.021,0.314-0.062,0.416
		c-0.041,0.109-0.11,0.191-0.207,0.232c-0.103,0.048-0.214,0.068-0.338,0.068c-0.035,0-0.09,0-0.152,0c-0.103,0-0.186,0-0.241,0
		h-2.351V243.786z"/>
	<path style="fill:#231F20;" d="M236.201,226.103v12.689h3.061v-12.689H236.201z M236.201,243.786h8.852v-17.683h-3.061v14.613
		h-5.791V243.786z"/>
	<rect x="248.086" y="226.103" style="fill:#231F20;" width="3.061" height="17.683"/>
	<path style="fill:#231F20;" d="M263.252,229.173c-0.379,0-0.682,0.137-0.896,0.403c-0.214,0.266-0.324,0.573-0.324,0.928
		c0,0.362,0.117,0.682,0.358,0.955c0.234,0.28,0.558,0.416,0.958,0.416h0.138c0.393,0,0.696-0.137,0.91-0.403
		c0.214-0.266,0.324-0.58,0.324-0.941c0-0.355-0.11-0.662-0.338-0.921c-0.248-0.294-0.579-0.437-0.979-0.437H263.252z
		 M266.837,229.214c-0.386,0-0.696,0.13-0.917,0.389c-0.22,0.259-0.331,0.566-0.331,0.914c0,0.362,0.117,0.675,0.358,0.948
		c0.242,0.273,0.566,0.409,0.972,0.409h0.138c0.4,0,0.71-0.13,0.931-0.396c0.221-0.266,0.331-0.573,0.331-0.921
		c0-0.348-0.11-0.655-0.338-0.914c-0.255-0.286-0.593-0.43-1.006-0.43H266.837z M269.105,237.892v2.824h-4.66
		c-0.386,0-0.737-0.137-1.041-0.402c-0.31-0.266-0.462-0.587-0.462-0.948c0-0.402,0.145-0.75,0.441-1.037
		c0.29-0.293,0.648-0.436,1.061-0.436H269.105z M276.668,240.716h-4.171v-7.832h-3.392v1.856h-4.791c-1.303,0-2.44,0.45-3.419,1.344
		c-0.979,0.894-1.468,1.971-1.468,3.227v0.184c0,1.221,0.496,2.258,1.489,3.104c0.958,0.819,2.089,1.228,3.392,1.228h4.281
		l0.496-0.614l0.434,0.614h7.149V240.716z"/>
	<rect x="273.304" y="240.757" style="fill:#231F20;" width="7.363" height="3.029"/>
	<rect x="279.315" y="240.757" style="fill:#231F20;" width="7.363" height="3.029"/>
	<path style="fill:#231F20;" d="M287.684,234.167v0.737h2.509h0.172c0.145,0,0.234-0.027,0.276-0.082
		c0.041-0.055,0.062-0.157,0.062-0.32v-0.334h-1.179c-0.159,0-0.31-0.048-0.455-0.136c-0.145-0.095-0.22-0.212-0.227-0.348v-0.054
		c0-0.15,0.069-0.28,0.214-0.396c0.145-0.116,0.303-0.17,0.469-0.17h1.179v-0.737h-1.179c-0.345,0-0.641,0.068-0.91,0.212
		c-0.262,0.143-0.421,0.348-0.476,0.621v0.225c0,0.3,0.103,0.566,0.31,0.785H287.684z M285.327,240.757l-0.041,3.029h9.555v-3.029
		h-4.136v-4.83h-3.02v3.65v0.498c-0.021,0.225-0.048,0.375-0.097,0.45c-0.048,0.075-0.124,0.137-0.234,0.191
		c-0.11,0.055-0.221,0.068-0.338,0.041h-0.331H285.327z"/>
	<rect x="291.531" y="240.757" style="fill:#231F20;" width="7.363" height="3.029"/>
	<path style="fill:#231F20;" d="M297.46,240.757v3.029h13.443v-3.029h-4.633v-4.871h-3.433v3.534c0,0.184,0,0.321,0,0.416
		c0,0.068,0,0.109,0,0.136c0,0.198-0.021,0.355-0.055,0.464c-0.035,0.102-0.117,0.191-0.234,0.259
		c-0.124,0.068-0.255,0.089-0.4,0.061h-0.393H297.46z M300.976,245.096c-0.448,0-0.793,0.143-1.02,0.43
		c-0.228,0.287-0.344,0.635-0.344,1.037c0,0.396,0.131,0.75,0.4,1.057c0.269,0.307,0.627,0.464,1.075,0.464h0.152
		c0.441,0,0.786-0.15,1.027-0.457c0.214-0.273,0.324-0.607,0.324-1.01c0-0.402-0.124-0.75-0.365-1.037
		c-0.269-0.321-0.641-0.484-1.11-0.484H300.976z M304.988,245.096c-0.448,0-0.793,0.143-1.02,0.43
		c-0.228,0.287-0.345,0.635-0.345,1.037c0,0.402,0.131,0.757,0.386,1.064c0.255,0.307,0.621,0.457,1.089,0.457h0.152
		c0.441,0,0.786-0.15,1.027-0.457c0.214-0.273,0.324-0.607,0.324-1.01c0-0.402-0.124-0.75-0.365-1.037
		c-0.269-0.321-0.641-0.484-1.11-0.484H304.988z"/>
	<rect x="307.125" y="240.757" style="fill:#231F20;" width="7.363" height="3.029"/>
	<path style="fill:#231F20;" d="M325.146,238.806c0.159,0.246,0.29,0.498,0.386,0.764c0.089,0.259,0.138,0.519,0.138,0.785v0.362
		h-2.234v-3.029c0.717,0.15,1.275,0.512,1.682,1.091L325.146,238.806z M320.334,237.667v3.05h-2.206l-0.028-0.362
		c0-0.573,0.172-1.092,0.524-1.562c0.407-0.593,0.965-0.955,1.682-1.098L320.334,237.667z M313.054,243.786h20.041v-3.07h-4.219
		v-0.123c0-0.873-0.103-1.61-0.31-2.224c-0.207-0.607-0.579-1.255-1.13-1.931c-0.545-0.675-1.138-1.201-1.765-1.569
		c-0.627-0.368-1.386-0.614-2.275-0.73v-1.282h-3.061v1.289c-0.869,0.157-1.606,0.416-2.213,0.771
		c-0.607,0.355-1.165,0.867-1.682,1.535c-0.483,0.607-0.834,1.221-1.062,1.842c-0.221,0.621-0.338,1.317-0.338,2.087v0.334h-1.958
		L313.054,243.786z"/>
	<rect x="329.827" y="240.757" style="fill:#231F20;" width="7.363" height="3.029"/>
	<polygon style="fill:#231F20;" points="335.838,240.757 335.797,243.786 342.911,243.786 342.911,226.103 339.851,226.103 
		339.851,240.757 	"/>
	<rect x="346.979" y="226.103" style="fill:#231F20;" width="3.061" height="17.683"/>
	<path style="fill:#00A551;" d="M378.815,223.743c-1.292,0-2.339-1.048-2.339-2.339c0-1.291,1.048-2.339,2.339-2.339h46.353
		c1.291,0,2.339,1.048,2.339,2.339c0,1.292-1.048,2.339-2.339,2.339H378.815z"/>
	<path style="fill:#00A551;" d="M386.174,216.031c-1.292,0-2.339-1.047-2.339-2.339s1.047-2.339,2.339-2.339h31.482
		c1.292,0,2.339,1.047,2.339,2.339s-1.047,2.339-2.339,2.339H386.174z"/>
	<path style="fill:#00A551;" d="M397.141,208.444c-1.29,0-2.337-1.036-2.337-2.314s1.047-2.313,2.337-2.313h13.204
		c1.29,0,3.038,1.036,3.038,2.313s0.655,2.314-0.635,2.314H397.141z"/>
	<path style="fill:#00A551;" d="M407.222,203.519c-0.832-0.983-0.709-2.455,0.273-3.286c0.983-0.832,2.455-0.709,3.286,0.273
		l34.696,40.801l0.125,1.299c0.832,0.982,1.16,2.079,0.177,2.911c-0.983,0.832-0.626,2.612-1.458,1.629L407.222,203.519z"/>
	<path style="fill:#00A551;" d="M416.235,202.757c-0.832-0.984-0.709-2.457,0.274-3.289c0.983-0.832,2.457-0.709,3.289,0.274
		l27.899,32.806l0.552,1.703c0.832,0.984,0.508,2.358-0.475,3.19c-0.983,0.832-0.678,1.61-1.51,0.627L416.235,202.757z"/>
	<path style="fill:#00A551;" d="M426.877,203.367c-0.832-0.983-0.71-2.457,0.274-3.289c0.983-0.832,2.457-0.709,3.289,0.274
		l20.394,23.983c0.832,0.984,0.709,2.457-0.274,3.289c-0.984,0.832-2.457,0.709-3.289-0.274L426.877,203.367z"/>
	<path style="fill:#00A551;" d="M439.767,206.808c-0.833-0.979-0.722-2.441,0.247-3.266c0.969-0.824,2.431-0.699,3.264,0.28
		l10.111,11.89c0.833,0.979,0.722,2.442-0.247,3.266c-0.969,0.824-2.431,0.699-3.264-0.28L439.767,206.808z"/>
	<path style="fill:#EC1C24;" d="M446.48,290.535c1.17,0.544,1.678,1.936,1.133,3.106c-0.544,1.17-1.936,1.678-3.106,1.133
		l-39.808-18.535l-0.379-1.1c-1.171-0.544-1.712-1.763-1.167-2.933c0.544-1.17,0.136-1.782,1.307-1.237L446.48,290.535z"/>
	<path style="fill:#EC1C24;" d="M436.554,294.421c1.17,0.544,1.677,1.936,1.133,3.106c-0.544,1.17-1.936,1.677-3.105,1.132
		l-28.54-13.289c-1.17-0.544-1.677-1.936-1.133-3.105c0.544-1.17,1.936-1.677,3.106-1.133L436.554,294.421z"/>
	<path style="fill:#EC1C24;" d="M423.41,296.668c1.17,0.544,1.681,1.926,1.142,3.084c-0.539,1.158-1.925,1.656-3.095,1.111
		l-14.15-6.589c-1.17-0.544-1.681-1.926-1.142-3.084c0.539-1.158,1.925-1.656,3.095-1.111L423.41,296.668z"/>
	<path style="fill:#231F20;" d="M450.745,211.052c0.297-1.255,1.556-2.032,2.812-1.735c1.255,0.297,2.032,1.557,1.735,2.812
		l-12.007,50.406l-0.456,1.913l-1.158,0.987c-0.297,1.255-1.557,0.679-2.812,0.382c-1.255-0.297-1.931,0.848-1.634-0.407
		l0.824-1.056L450.745,211.052z"/>
	<path style="fill:#231F20;" d="M457.352,217.036c0.297-1.256,1.558-2.033,2.814-1.736c1.256,0.297,2.034,1.558,1.736,2.814
		l-9.729,40.844l-1.061,1.344c-0.298,1.256-0.958,2.033-2.214,1.735c-1.256-0.298-2.584,1.347-2.286,0.091L457.352,217.036z"/>
	<path style="fill:#231F20;" d="M463.728,225.428c0.297-1.256,1.557-2.033,2.813-1.735c1.256,0.297,2.033,1.557,1.735,2.813
		l-7.296,30.625c-0.297,1.256-2.158,0.931-3.414,0.634c-1.256-0.297-1.431-0.456-1.134-1.712L463.728,225.428z"/>
	<path style="fill:#231F20;" d="M469.06,237.837c0.298-1.25,1.544-2.025,2.781-1.731c1.238,0.295,1.999,1.548,1.702,2.798
		l-2.938,12.33l-1.23,0.85c-0.298,1.25-1.043,2.025-2.281,1.731c-1.238-0.295-1.949,0.455-1.652-0.795L469.06,237.837z"/>
	<path style="fill:#231F20;" d="M472.703,247.517c1.17-0.534,2.552-0.019,3.086,1.151c0.534,1.17,0.019,2.552-1.151,3.086
		l-49.848,22.812l-1.641-0.019c-1.17,0.533-1.965,0.11-2.498-1.06c-0.534-1.17-1.193-1.604-0.024-2.138L472.703,247.517z"/>
	<path style="fill:#231F20;" d="M470.984,256.396c1.17-0.534,2.554-0.019,3.088,1.151c0.535,1.171,0.019,2.554-1.151,3.088
		l-39.218,17.948l-1.214-0.736c-1.17,0.535-2.824,0.65-3.358-0.52c-0.535-1.17-1.464-1.108-0.294-1.643L470.984,256.396z"/>
	<path style="fill:#231F20;" d="M468.462,266.032c1.17-0.535,2.553-0.019,3.087,1.151c0.534,1.17,0.019,2.553-1.151,3.087
		l-28.627,13.101c-1.17,0.535-2.553,0.019-3.087-1.151c-0.535-1.17-0.019-2.553,1.151-3.087L468.462,266.032z"/>
	<path style="fill:#231F20;" d="M461.645,277.496c1.169-0.534,2.547-0.03,3.076,1.127c0.529,1.157,0.011,2.53-1.158,3.064
		l-12.197,5.581l-1.771-0.35c-1.169,0.535-1.644,0.12-2.173-1.037c-0.529-1.157-1.14-1.356,0.029-1.89L461.645,277.496z"/>
	<path style="fill:#EC1C24;" d="M403.341,294.596c0.292,1.256-0.489,2.513-1.745,2.805c-1.256,0.292-2.513-0.489-2.805-1.745
		l-10.011-42.508l1.451-0.825c-0.292-1.256-0.497-1.778,0.758-2.07c1.256-0.292,1.433-2.031,1.725-0.775l0.323,1.374
		L403.341,294.596z"/>
	<path style="fill:#EC1C24;" d="M393.991,289.966c0.292,1.256-0.488,2.512-1.744,2.804c-1.256,0.292-2.512-0.488-2.804-1.744
		l-7.216-30.644c-0.292-1.256,0.488-2.512,1.744-2.804c1.256-0.292,2.512,0.488,2.804,1.744L393.991,289.966z"/>
	<path style="fill:#EC1C24;" d="M383.572,281.564c0.295,1.251-0.471,2.503-1.709,2.794c-1.239,0.291-2.483-0.487-2.777-1.737
		l-2.844-12.081l1.208-1.985c-0.295-1.251-0.124-2.377,1.114-2.668c1.239-0.292,1.137-0.765,1.432,0.485L383.572,281.564z"/>
	<path style="fill:#EC1C24;" d="M375.947,273.084c-0.832,0.983-2.304,1.105-3.287,0.273c-0.983-0.832-1.105-2.304-0.273-3.286
		l35.453-41.844l0.941,0.382c0.832-0.983,1.761-0.687,2.744,0.145c0.983,0.832,2.274-0.346,1.442,0.636L375.947,273.084z"/>
	<path style="fill:#EC1C24;" d="M372.789,265.058c-0.832,0.983-2.305,1.106-3.288,0.274c-0.984-0.832-1.106-2.305-0.274-3.289
		l28.608-33.768l1.251,0.8c0.832-0.983,1.491-1.482,2.475-0.65c0.983,0.832,2.024,0.282,1.192,1.265L372.789,265.058z"/>
	<path style="fill:#EC1C24;" d="M370.954,254.787c-0.832,0.983-2.305,1.106-3.288,0.274c-0.984-0.832-1.106-2.305-0.274-3.289
		l20.35-24.019c0.832-0.984,2.305-1.106,3.289-0.274c0.983,0.832,1.106,2.305,0.274,3.289L370.954,254.787z"/>
	<path style="fill:#EC1C24;" d="M371.756,241.561c-0.83,0.981-2.293,1.108-3.264,0.286c-0.971-0.822-1.084-2.286-0.253-3.266
		l8.558-10.099l1.491,0.486c0.83-0.981,1.416-1.316,2.387-0.494c0.971,0.822,2.003,0.199,1.172,1.179L371.756,241.561z"/>
	<path style="fill:#EC1C24;" d="M454.354,286.084c1.17,0.544,1.677,1.934,1.133,3.104c-0.544,1.17-1.935,1.677-3.104,1.132
		l-51.917-24.174c-1.17-0.544-0.259-1.831,0.285-3c0.544-1.17,0.516-1.78,1.686-1.236L454.354,286.084z"/>
	<path style="fill:#EC1C24;" d="M411.942,297.965c0.292,1.255-0.489,2.51-1.744,2.803c-1.255,0.292-2.51-0.489-2.802-1.744
		l-12.369-52.522l1.072-0.593c-0.292-1.255,0.193-2.01,1.448-2.302c1.255-0.292,0.977-2.641,1.269-1.385L411.942,297.965z"/>
	<path style="fill:#00A551;" d="M373.557,231.102c-1.29,0-2.337-1.047-2.337-2.337c0-1.29,1.047-2.337,2.337-2.337h57.27
		c1.29,0,2.337,1.047,2.337,2.337c0,1.29-1.047,2.337-2.337,2.337H373.557z"/>
</g>
</svg>
