<svg width="74" height="54" viewBox="0 0 74 54" fill="none" xmlns="http://www.w3.org/2000/svg">
<path fill-rule="evenodd" clip-rule="evenodd" d="M54.6661 40.1056H54.6695C55.3869 40.7754 56.1452 41.3432 57.0156 41.8022C59.586 43.1554 62.4827 43.1554 66.5015 43.152L68.3409 43.1044C71.0405 42.7678 73.169 40.6394 73.509 37.9398C73.5532 37.5658 73.5531 37.1578 73.5531 36.7668L73.5531 17.4446C73.5531 15.9724 73.5532 14.6226 73.407 13.5278C73.2438 12.3174 72.8596 11.039 71.809 9.98839C70.7584 8.93779 69.4833 8.55701 68.2729 8.39382C67.1747 8.24761 65.8283 8.24764 64.3561 8.24764L62.4454 8.24764C59.9056 8.24764 57.9846 6.94202 55.4754 4.40902C53.3776 2.29082 50.2189 0.968178 47.2949 0.791378C45.0101 0.645178 41.9433 0.454792 39.2233 1.14499L38.9922 1.20617C35.5514 2.15477 33.3039 4.6878 31.5359 6.6836L26.402 12.4636C23.5358 15.6902 23.5358 20.8106 26.402 24.0372C28.986 26.9442 33.1883 27.4644 36.3299 25.1082C36.7651 24.7818 37.3669 24.2718 37.7579 23.9454C38.0945 23.6564 38.4074 23.3912 38.727 23.1362C39.3016 22.5888 40.733 21.8816 41.8754 23.4218L49.8245 34.1624C51.2355 36.0698 52.3848 37.6236 53.4388 38.8238C53.8434 39.2828 54.2479 39.7112 54.6661 40.1056ZM27.1975 0.730202C27.8027 0.808402 28.1053 0.849185 28.3399 1.05319C28.5745 1.25719 28.7207 1.64483 28.6765 1.95423C28.6357 2.26363 28.3909 2.54239 27.8979 3.09999L22.5906 9.07722C18.0074 14.235 18.0074 22.2658 22.5906 27.427C26.419 31.7348 32.7871 32.799 37.9177 30.0892C38.8425 29.5996 39.3084 29.3548 39.6756 29.4364C40.0462 29.5214 40.3215 29.8954 40.8723 30.64L45.8261 37.3312C47.1555 39.1264 48.4101 40.823 49.6035 42.183C49.8246 42.438 50.0558 42.693 50.2938 42.9446C50.6712 43.339 50.6711 43.968 50.2801 44.3488C47.6485 46.892 45.5099 48.9592 43.5923 50.4212C41.5897 51.9444 39.0023 53.0426 36.6461 53.3248C34.2797 53.4948 32.1343 52.8522 29.8699 51.7404C27.6939 50.6694 25.0521 48.9694 21.9513 46.9702C18.5581 44.7806 17.2525 43.968 15.8211 43.5328C14.3727 43.1248 12.5945 43.0398 8.51451 43.0398H8.42271C7.51491 43.0398 6.68194 43.0398 5.98834 42.982C5.24034 42.9174 4.42094 42.7712 3.61514 42.3462C2.56454 41.7886 1.70434 40.9284 1.14674 39.8744C0.721738 39.072 0.575498 38.2526 0.510898 37.5046C0.453098 36.8076 0.453125 35.978 0.453125 35.0702L0.453125 16.649C0.453125 15.1768 0.453102 13.8304 0.599302 12.7322C0.762502 11.5218 1.14669 10.2468 2.19729 9.19277C3.24789 8.14217 4.52294 7.76138 5.73334 7.59819C6.83154 7.45198 8.17794 7.45201 9.65014 7.45201H12.7441C14.3353 7.45201 16.0081 6.66663 17.3443 5.00743C19.8501 1.87943 23.4983 0.254202 27.1975 0.730202Z" fill="white"/>
</svg>
