<svg width="50" height="50" viewBox="0 0 50 50" fill="none" xmlns="http://www.w3.org/2000/svg">
<path fill-rule="evenodd" clip-rule="evenodd" d="M4.87359 22.75C5.91118 13.3639 13.3639 5.91118 22.75 4.87359V11.5C22.75 12.7426 23.7574 13.75 25 13.75C26.2426 13.75 27.25 12.7426 27.25 11.5V4.87359C36.6361 5.91118 44.0888 13.3639 45.1264 22.75H38.5C37.2574 22.75 36.25 23.7574 36.25 25C36.25 26.2426 37.2574 27.25 38.5 27.25H45.1264C44.0888 36.6361 36.6361 44.0888 27.25 45.1264V38.5C27.25 37.2574 26.2426 36.25 25 36.25C23.7574 36.25 22.75 37.2574 22.75 38.5V45.1264C13.3639 44.0888 5.91118 36.6361 4.87359 27.25H11.5C12.7426 27.25 13.75 26.2426 13.75 25C13.75 23.7574 12.7426 22.75 11.5 22.75H4.87359ZM25 49.75C38.6691 49.75 49.75 38.6691 49.75 25C49.75 11.331 38.6691 0.25 25 0.25C11.331 0.25 0.25 11.331 0.25 25C0.25 38.6691 11.331 49.75 25 49.75ZM24.9912 21.625C23.1273 21.625 21.6162 23.136 21.6162 25C21.6162 26.864 23.1273 28.375 24.9912 28.375H25.0114C26.8754 28.375 28.3864 26.864 28.3864 25C28.3864 23.136 26.8754 21.625 25.0114 21.625H24.9912Z" fill="#0A7A4D"/>
</svg>
