<svg width="28" height="28" viewBox="0 0 28 28" fill="none" xmlns="http://www.w3.org/2000/svg">
<path d="M21.5833 8.75C21.5833 10.0387 20.5387 11.0833 19.25 11.0833C17.9613 11.0833 16.9167 10.0387 16.9167 8.75C16.9167 7.46134 17.9613 6.41667 19.25 6.41667C20.5387 6.41667 21.5833 7.46134 21.5833 8.75Z" fill="white"/>
<path fill-rule="evenodd" clip-rule="evenodd" d="M13.9131 1.75H14.0869C16.6255 1.74997 18.6494 1.74995 20.2362 1.96329C21.8746 2.18358 23.2207 2.65037 24.2852 3.71483C25.3496 4.77928 25.8164 6.12539 26.0367 7.76383C26.2501 9.35066 26.25 11.3745 26.25 13.9132V14.0868C26.25 16.6255 26.2501 18.6493 26.0367 20.2362C25.8164 21.8746 25.3496 23.2207 24.2852 24.2852C23.2207 25.3496 21.8746 25.8164 20.2362 26.0367C18.6493 26.2501 16.6255 26.25 14.0868 26.25H13.9132C11.3745 26.25 9.35066 26.2501 7.76383 26.0367C6.12539 25.8164 4.77928 25.3496 3.71483 24.2852C2.65037 23.2207 2.18358 21.8746 1.96329 20.2362C1.74995 18.6494 1.74997 16.6255 1.75 14.0869V13.9131C1.74997 11.3745 1.74995 9.35065 1.96329 7.76383C2.18358 6.12539 2.65037 4.77928 3.71483 3.71483C4.77928 2.65037 6.12539 2.18358 7.76383 1.96329C9.35065 1.74995 11.3745 1.74997 13.9131 1.75ZM8.07474 4.27582C6.69504 4.46132 5.9234 4.80608 5.36474 5.36474C4.80608 5.9234 4.46132 6.69504 4.27582 8.07474C4.08581 9.48801 4.08334 11.3547 4.08334 14C4.08334 14.3136 4.08337 14.6162 4.08375 14.9084C4.41927 14.8876 4.75561 14.8775 5.09219 14.8781C8.37404 14.811 11.582 15.834 14.1447 17.7758C16.2311 19.3567 17.7819 21.4656 18.6195 23.844C19.0953 23.8161 19.5282 23.7776 19.9253 23.7242C20.0925 23.7017 20.2508 23.6769 20.4008 23.6496C19.8094 21.8029 18.8468 20.0967 17.5801 18.6178C17.3125 18.3054 17.4173 17.815 17.8089 17.6892C18.809 17.3681 19.8331 17.2045 20.8691 17.2084C21.8874 17.2076 22.8968 17.3704 23.8844 17.689C23.9159 16.6561 23.9167 15.4441 23.9167 14C23.9167 11.3547 23.9142 9.48801 23.7242 8.07474C23.5387 6.69504 23.1939 5.9234 22.6353 5.36474C22.0766 4.80608 21.305 4.46132 19.9253 4.27582C18.512 4.08581 16.6454 4.08333 14 4.08333C11.3547 4.08333 9.48801 4.08581 8.07474 4.27582Z" fill="white"/>
</svg>
