<svg width="18" height="18" viewBox="0 0 18 18" fill="none" xmlns="http://www.w3.org/2000/svg">
<path fill-rule="evenodd" clip-rule="evenodd" d="M8.16602 0.0410156C3.6787 0.0410156 0.0410156 3.6787 0.0410156 8.16602C0.0410156 12.6533 3.6787 16.291 8.16602 16.291C10.1847 16.291 12.0314 15.5548 13.4524 14.3363L16.8907 17.7746C17.1348 18.0187 17.5305 18.0187 17.7746 17.7746C18.0187 17.5305 18.0187 17.1348 17.7746 16.8907L14.3363 13.4524C15.5548 12.0314 16.291 10.1847 16.291 8.16602C16.291 3.6787 12.6533 0.0410156 8.16602 0.0410156ZM1.29102 8.16602C1.29102 4.36906 4.36906 1.29102 8.16602 1.29102C11.963 1.29102 15.041 4.36906 15.041 8.16602C15.041 11.963 11.963 15.041 8.16602 15.041C4.36906 15.041 1.29102 11.963 1.29102 8.16602Z" fill="#383F48"/>
</svg>
