<svg width="50" height="50" viewBox="0 0 50 50" fill="none" xmlns="http://www.w3.org/2000/svg">
<path d="M24.9956 0.8125C27.3565 0.8125 29.2161 2.5957 30.4034 5.00181L34.3679 12.9966C34.4881 13.244 34.7731 13.5925 35.2015 13.9112C35.6295 14.2296 36.0486 14.4052 36.3244 14.4516L43.5011 15.6538C46.0934 16.0894 48.2662 17.3601 48.9715 19.5728C49.6763 21.7836 48.6437 24.0811 46.7796 25.9487L46.7777 25.9505L41.2024 31.5719C40.9814 31.7947 40.7339 32.2145 40.5787 32.7612C40.4245 33.3044 40.4108 33.799 40.4807 34.1187L40.4817 34.1231L42.0768 41.0771C42.7383 43.9714 42.5191 46.8415 40.4778 48.3419C38.4295 49.8475 35.6304 49.1801 33.0876 47.6657L26.3601 43.6503C26.0776 43.4815 25.5925 43.3448 25.0069 43.3448C24.4255 43.3448 23.9302 43.4797 23.6293 43.6547L23.625 43.6572L16.9109 47.6647C14.371 49.1845 11.5754 49.84 9.52689 48.333C7.487 46.8322 7.25671 43.9676 7.92039 41.0756L9.51517 34.1231L9.51614 34.1187C9.58607 33.799 9.57238 33.3044 9.41819 32.7612C9.26295 32.2145 9.01541 31.7947 8.79444 31.5719L3.21506 25.9464C1.36285 24.0789 0.33361 21.7834 1.03278 19.5758C1.73398 17.3618 3.90261 16.0896 6.49664 15.6536L13.6674 14.4524L13.6696 14.452C13.9325 14.4064 14.3455 14.2328 14.7725 13.9135C15.2003 13.5937 15.486 13.2445 15.6064 12.9966L15.6125 12.9843L19.572 4.99969L19.5736 4.99654C20.7721 2.59242 22.6375 0.8125 24.9956 0.8125Z" fill="#0A7A4D"/>
</svg>
