<svg width="56" height="56" viewBox="0 0 56 56" fill="none" xmlns="http://www.w3.org/2000/svg">
<path d="M4.625 2.5C4.625 1.32639 3.67361 0.375 2.5 0.375C1.3264 0.375 0.375001 1.32639 0.375001 2.5V33.8246C0.374951 38.3652 0.374911 41.9889 0.757019 44.831C1.15177 47.7671 1.9891 50.1852 3.90195 52.0982C5.81484 54.011 8.23284 54.8483 11.1689 55.243C14.011 55.6251 17.6347 55.6251 22.1754 55.625H53.5C54.6736 55.625 55.625 54.6736 55.625 53.5C55.625 52.3264 54.6736 51.375 53.5 51.375H22.3333C17.5985 51.375 14.2611 51.3705 11.7352 51.0309C9.27044 50.6995 7.8988 50.0846 6.90719 49.093C5.91551 48.1012 5.30051 46.7295 4.96912 44.2647C4.62952 41.7388 4.625 38.4015 4.625 33.6667V2.5Z" fill="#0A7A4D"/>
<path d="M16.6584 44.2889C15.4847 44.2889 14.5334 43.3375 14.5334 42.1639C14.5334 40.9903 15.4848 40.0389 16.6584 40.0389C21.4446 40.0389 28.7016 39.0344 34.6208 35.0966C39.825 31.6346 44.2031 25.7751 44.797 15.6963L42.2257 18.2858C41.3988 19.1186 40.0533 19.1234 39.2205 18.2965C38.3877 17.4696 38.383 16.1241 39.2099 15.2913L44.5465 9.91675C45.9203 8.53317 48.1534 8.52277 49.54 9.89361L54.9857 15.2774C55.8203 16.1025 55.828 17.448 55.0029 18.2826C54.1778 19.1171 52.8323 19.1248 51.9977 18.2997L49.0677 15.403C48.5265 27.0778 43.4414 34.3333 36.9748 38.6352C30.0842 43.2191 21.878 44.2889 16.6584 44.2889Z" fill="#0A7A4D"/>
</svg>
