<svg width="62" height="62" viewBox="0 0 62 62" fill="none" xmlns="http://www.w3.org/2000/svg">
<path fill-rule="evenodd" clip-rule="evenodd" d="M4.87592 33.1244C5.90135 45.9041 16.0946 56.0974 28.8744 57.1228V47.9994C28.8744 46.8257 29.8257 45.8744 30.9994 45.8744C32.173 45.8744 33.1244 46.8257 33.1244 47.9994V57.1228C45.9041 56.0974 56.0974 45.9041 57.1228 33.1244H47.9994C46.8257 33.1244 45.8744 32.173 45.8744 30.9994C45.8744 29.8257 46.8257 28.8744 47.9994 28.8744H57.1228C56.0974 16.0946 45.9041 5.90135 33.1244 4.87592V13.9993C33.1244 15.173 32.173 16.1243 30.9994 16.1243C29.8257 16.1243 28.8744 15.173 28.8744 13.9993V4.87592C16.0946 5.90135 5.90135 16.0946 4.87592 28.8744H13.9993C15.173 28.8744 16.1243 29.8257 16.1243 30.9994C16.1243 32.173 15.173 33.1244 13.9993 33.1244H4.87592ZM0.541016 30.9994C0.541016 14.1777 14.1777 0.541016 30.9994 0.541016C47.821 0.541016 61.4577 14.1777 61.4577 30.9994C61.4577 47.821 47.821 61.4577 30.9994 61.4577C14.1777 61.4577 0.541016 47.821 0.541016 30.9994ZM30.9883 28.166C29.4235 28.166 28.1549 29.4345 28.1549 30.9994C28.1549 32.5642 29.4235 33.8327 30.9883 33.8327H31.0137C32.5785 33.8327 33.8471 32.5642 33.8471 30.9994C33.8471 29.4345 32.5785 28.166 31.0137 28.166H30.9883Z" fill="#0A7A4D"/>
</svg>
