<svg width="62" height="44" viewBox="0 0 62 44" fill="none" xmlns="http://www.w3.org/2000/svg">
<path d="M56.052 35.4586H59.3216C60.4946 35.4586 61.4466 34.5066 61.4466 33.3336C61.4466 32.1606 60.4946 31.2086 59.3216 31.2086H56.0406C52.346 31.2086 50.8018 31.1859 49.6486 30.5768C48.4082 29.9226 47.2839 28.4022 45.0421 25.3706L38.4603 16.4825C37.6414 15.3764 35.7359 12.8026 32.5523 13.8318C31.1243 14.2936 29.923 15.3136 28.8661 16.2118C28.8403 16.2337 28.8146 16.2555 28.7891 16.2772C28.4634 16.5535 28.1558 16.8146 27.8773 17.0221C27.0641 17.6313 26.0413 17.5066 25.333 16.7076C24.3696 15.6225 24.3696 13.7893 25.333 12.7041L29.4866 8.02909C30.9061 6.43109 32.1301 5.05413 33.7735 4.6008C35.3856 4.1588 37.5106 4.28624 39.3863 4.40241L39.6696 4.41943C41.0268 4.50159 42.3386 5.1193 43.3671 6.16197C45.6621 8.4768 48.3198 10.6188 52.1958 10.6188L59.3273 10.6188C60.5003 10.6188 61.4523 9.6668 61.4523 8.4938C61.4523 7.3208 60.5003 6.3688 59.3273 6.3688L52.1958 6.3688C50 6.3688 48.3453 5.14479 46.3903 3.17279C44.6279 1.38779 42.3358 0.322433 39.9331 0.1751L39.6372 0.15715C37.4366 0.0242064 34.9411 -0.126556 32.6543 0.500975C31.2455 0.888505 30.1005 1.57031 29.0964 2.39289C29.0581 2.37421 29.019 2.35655 28.9792 2.33997L25.0323 0.699456C21.3717 -0.822044 17.2832 0.345284 14.617 3.66878C13.563 4.98345 12.2002 5.70877 10.7835 5.70877L2.66602 5.70877C1.49302 5.70877 0.541016 6.66077 0.541016 7.83377C0.541016 9.00677 1.49302 9.95877 2.66602 9.95877L10.7835 9.95877C13.4752 9.95877 16.079 8.63559 17.932 6.32925C19.4082 4.48759 21.5048 3.83591 23.4032 4.62358L25.9077 5.66459L22.1653 9.87927C19.7626 12.5823 19.7626 16.8209 22.1653 19.5268C24.3611 21.9974 27.8405 22.3686 30.4386 20.4164C30.8381 20.1161 31.2404 19.7761 31.6258 19.4474C32.3823 18.8043 33.2408 18.0761 33.8698 17.8721C33.9406 17.8494 33.9746 17.8466 33.9746 17.8466C34.105 17.8863 34.3968 18.1186 35.0569 19.0139L41.6545 27.9225C42.1252 28.5583 42.5567 29.1411 42.9607 29.6758L39.1877 33.3253C35 37.3741 32.8949 39.4056 30.6934 39.6691C30.5957 39.6803 30.498 39.6887 30.4004 39.697L30.3958 39.6974C28.1872 39.856 25.7069 38.2573 20.7546 35.0652L20.728 35.048C17.9426 33.2531 16.4038 32.2616 14.5689 31.7074L14.3138 31.6309C12.4807 31.1153 10.7354 31.1153 7.25885 31.1153H2.66602C1.49302 31.1153 0.541016 32.0672 0.541016 33.2403C0.541016 34.4132 1.49302 35.3653 2.66602 35.3653H7.25885C10.3301 35.3653 11.8772 35.3653 13.1465 35.7166L13.3505 35.7789C14.6029 36.1577 15.8836 36.9823 18.4422 38.6298L18.4686 38.6468C23.6923 42.0142 26.7081 43.9583 30.0659 43.9588C30.275 43.9587 30.487 43.953 30.699 43.9332H30.7472C30.9049 43.9192 31.0653 43.9048 31.209 43.8879C34.8187 43.4573 37.4197 40.9441 42.157 36.3654L45.7224 32.9171C46.3414 33.4979 46.9693 33.9606 47.6766 34.3338C49.8073 35.4586 52.0259 35.4586 56.052 35.4586Z" fill="#0A7A4D"/>
</svg>
