<svg width="62" height="62" viewBox="0 0 62 62" fill="none" xmlns="http://www.w3.org/2000/svg">
<path fill-rule="evenodd" clip-rule="evenodd" d="M27.9658 7.7059C27.9655 7.70658 27.9661 7.70521 27.9658 7.7059L22.985 17.7498C22.4563 18.8335 21.5718 19.7617 20.6611 20.4426C19.7484 21.1249 18.6125 21.7058 17.4419 21.9063L17.4344 21.9075L8.39815 23.4213C5.88535 23.8435 5.0597 24.841 4.86615 25.4521C4.67003 26.0713 4.7763 27.3796 6.5801 29.1983L13.606 36.2823C14.5176 37.2014 15.1266 38.4296 15.4623 39.612C15.7984 40.7959 15.9236 42.1556 15.6447 43.41L15.6416 43.4239L13.6302 52.1932C12.8795 55.464 13.6376 56.6701 14.0293 56.9582C14.4103 57.2385 15.7626 57.607 18.6269 55.8931L27.1135 50.8278C28.2933 50.1357 29.7069 49.8502 31.0041 49.8502C32.2991 49.8502 33.7133 50.1349 34.8872 50.836C34.887 50.8359 34.8875 50.8362 34.8872 50.836L43.3562 55.8909C43.3558 55.8906 43.3566 55.8911 43.3562 55.8909C46.2443 57.6106 47.5949 57.2433 47.9689 56.9684C48.3518 56.687 49.1098 55.488 48.3564 52.1916L46.3421 43.41C46.0633 42.1556 46.1885 40.7959 46.5246 39.612C46.8603 38.4296 47.4693 37.2014 48.3809 36.2823L55.4068 29.1983L55.4119 29.1932C57.2276 27.375 57.3284 26.0702 57.1326 25.4559C56.9372 24.8431 56.1037 23.8439 53.5888 23.4213L44.5525 21.9075C43.3699 21.7088 42.2251 21.13 41.305 20.4455C40.388 19.7633 39.5026 18.8341 38.9736 17.7498L33.9888 7.69796C32.7925 5.27276 31.5791 4.79102 30.9899 4.79102C30.3971 4.79102 29.176 5.27931 27.9658 7.7059ZM37.7997 5.81644C36.3046 2.78652 33.9629 0.541016 30.9899 0.541016C28.0204 0.541016 25.6714 2.7824 24.1622 5.80981L24.1602 5.81377L19.1741 15.8684L19.1665 15.884C19.0148 16.1962 18.655 16.6359 18.1163 17.0386C17.5786 17.4406 17.0586 17.6593 16.7276 17.7167C16.7266 17.7169 16.7257 17.7171 16.7247 17.7172L7.69491 19.2299C4.42836 19.7788 1.69749 21.3809 0.814495 24.1689C-0.0659374 26.9488 1.23014 29.8395 3.56255 32.1912L10.5884 39.2751C10.8667 39.5557 11.1784 40.0842 11.3739 40.7728C11.5681 41.4567 11.5853 42.0796 11.4973 42.4821C11.4968 42.484 11.4964 42.4859 11.496 42.4877L9.48779 51.2427C9.48777 51.2428 9.48781 51.2427 9.48779 51.2427C8.65204 54.8844 8.94204 58.4918 11.5108 60.3816C14.0903 62.2794 17.6108 61.4539 20.8091 59.5401L29.264 54.4936C29.2658 54.4926 29.2676 54.4915 29.2694 54.4905C29.6482 54.27 30.272 54.1002 31.0041 54.1002C31.7415 54.1002 32.3525 54.2723 32.7082 54.4849L41.1798 59.5413C44.3819 61.4484 47.9067 62.2888 50.486 60.3929C53.0566 58.5034 53.3326 54.8893 52.4996 51.2446L50.4909 42.4877C50.4905 42.4859 50.4901 42.484 50.4897 42.4821C50.4016 42.0796 50.4188 41.4567 50.613 40.7728C50.8085 40.0842 51.1202 39.5557 51.3985 39.2751L58.4193 32.1963C58.42 32.1955 58.4208 32.1948 58.4215 32.194C60.769 29.8422 62.0694 26.9491 61.1818 24.1651C60.2936 21.3787 57.5575 19.7786 54.2931 19.23L45.2557 17.7161C44.9085 17.6578 44.3808 17.4366 43.8418 17.0357C43.3023 16.6343 42.9435 16.1955 42.7921 15.884L37.7997 5.81644C37.7999 5.81688 37.7995 5.81601 37.7997 5.81644Z" fill="#0A7A4D"/>
</svg>
