<svg width="62" height="62" viewBox="0 0 62 62" fill="none" xmlns="http://www.w3.org/2000/svg">
<path fill-rule="evenodd" clip-rule="evenodd" d="M0.541016 30.9994C0.541016 14.1777 14.1777 0.541016 30.9994 0.541016C33.0827 0.541016 35.1195 0.750505 37.0888 1.15027C38.2389 1.38376 38.982 2.50541 38.7485 3.65555C38.5151 4.8057 37.3934 5.5488 36.2433 5.31532C34.5507 4.97173 32.7971 4.79102 30.9994 4.79102C16.5249 4.79102 4.79102 16.5249 4.79102 30.9994C4.79102 45.4737 16.5249 57.2077 30.9994 57.2077C45.4737 57.2077 57.2077 45.4737 57.2077 30.9994C57.2077 29.2017 57.0269 27.448 56.6834 25.7552C56.4501 24.605 57.1933 23.4835 58.3435 23.2501C59.4937 23.0168 60.6152 23.76 60.8486 24.9102C61.2481 26.8792 61.4577 28.916 61.4577 30.9994C61.4577 47.8209 47.8209 61.4577 30.9994 61.4577C14.1777 61.4577 0.541016 47.8209 0.541016 30.9994ZM30.9994 18.9577C24.3489 18.9577 18.9577 24.3489 18.9577 30.9994C18.9577 37.6497 24.3489 43.041 30.9994 43.041C37.6497 43.041 43.041 37.6497 43.041 30.9994C43.041 29.8257 43.9924 28.8744 45.166 28.8744C46.3396 28.8744 47.291 29.8257 47.291 30.9994C47.291 39.9969 39.9969 47.291 30.9994 47.291C22.0017 47.291 14.7077 39.9969 14.7077 30.9994C14.7077 22.0017 22.0017 14.7077 30.9994 14.7077C32.173 14.7077 33.1244 15.6591 33.1244 16.8327C33.1244 18.0063 32.173 18.9577 30.9994 18.9577ZM53.3921 3.04673C52.6844 0.774746 49.8544 -0.277784 47.8615 1.35076C45.8096 3.02751 43.3518 5.23059 41.9673 8.10631C40.6952 10.7487 40.3989 13.803 41.7229 17.2499L29.5825 29.3903C28.7527 30.2202 28.7527 31.5657 29.5825 32.3955C30.4124 33.2254 31.7579 33.2254 32.5877 32.3955L44.6702 20.3131C48.3426 21.6855 51.488 21.3216 54.155 19.9569C56.9459 18.5288 59.0349 16.082 60.6104 14.1796C62.2714 12.174 61.211 9.26607 58.8595 8.58623C58.8328 8.5785 58.8059 8.5713 58.7789 8.56463L54.6448 7.54349L53.4104 3.1088C53.4046 3.08802 53.3985 3.06733 53.3921 3.04673ZM52.219 16.1735C50.6092 16.9972 48.6274 17.3258 45.8989 16.232C44.7368 13.6018 44.9976 11.6097 45.7967 9.94987C46.5956 8.29045 48.0023 6.81875 49.6384 5.40652L50.8833 9.87876C51.0889 10.6174 51.6765 11.188 52.4209 11.3719L56.5582 12.3938C55.2011 13.9709 53.8239 15.3523 52.219 16.1735Z" fill="#0A7A4D"/>
</svg>
