<svg width="28" height="28" viewBox="0 0 28 28" fill="none" xmlns="http://www.w3.org/2000/svg">
<path fill-rule="evenodd" clip-rule="evenodd" d="M11.752 3.5H10.4173C8.56388 3.49997 7.05513 3.49994 5.86533 3.65991C4.62401 3.8268 3.55655 4.18681 2.70566 5.03769C1.85478 5.88858 1.49477 6.95604 1.32787 8.19736C1.16791 9.38716 1.16794 10.8958 1.16797 12.7492V15.2507C1.16794 17.1041 1.16791 18.6128 1.32787 19.8027C1.49477 21.044 1.85478 22.1114 2.70566 22.9623C3.55655 23.8132 4.62401 24.1732 5.86533 24.3401C7.05516 24.5001 8.56385 24.5 10.4173 24.5H11.752C13.6054 24.5 15.1141 24.5001 16.304 24.3401C17.5453 24.1732 18.6127 23.8132 19.4636 22.9623C20.2868 22.1392 20.6505 21.1134 20.8244 19.9236C21.3587 20.3436 21.842 20.6975 22.2781 20.961C23.0951 21.4546 24.1305 21.8679 25.1931 21.3412C26.2391 20.8227 26.5631 19.76 26.698 18.8065C26.8336 17.8479 26.8335 16.558 26.8335 15.0085V12.9946C26.8335 11.4451 26.8336 10.1552 26.698 9.19662C26.5631 8.24312 26.2391 7.1804 25.1931 6.66189C24.1305 6.13519 23.0951 6.54852 22.2781 7.04211C21.8421 7.30549 21.359 7.65934 20.8249 8.07922C20.6511 6.88823 20.2874 5.86147 19.4636 5.03769C18.6127 4.18681 17.5453 3.8268 16.304 3.65991C15.1142 3.49994 13.6054 3.49997 11.752 3.5ZM20.9947 10.9463C21.0013 11.5066 21.0013 12.1073 21.0013 12.7493V15.2507C21.0013 15.8939 21.0013 16.4956 20.9947 17.0568C22.1114 17.977 22.8826 18.6002 23.4846 18.9638C23.8012 19.1551 23.9922 19.2241 24.0966 19.2448C24.1196 19.2494 24.1353 19.2509 24.1446 19.2514L24.1506 19.2515L24.1544 19.2515L24.1567 19.2506C24.1592 19.2494 24.1609 19.2483 24.162 19.2475C24.1633 19.2466 24.1638 19.246 24.1638 19.246C24.1672 19.2425 24.1847 19.2237 24.2095 19.175C24.2653 19.0659 24.3341 18.8581 24.3877 18.4797C24.4973 17.7046 24.5002 16.5824 24.5002 14.9138V13.0893C24.5002 11.4207 24.4973 10.2985 24.3877 9.52343C24.3341 9.14497 24.2653 8.93718 24.2095 8.82806C24.1847 8.77943 24.1677 8.76108 24.1643 8.75762C24.1643 8.75762 24.1618 8.75498 24.1567 8.75247L24.155 8.75162C24.155 8.75162 24.1492 8.75152 24.1446 8.75175C24.1353 8.75223 24.1196 8.75375 24.0966 8.75831C23.9922 8.77897 23.8012 8.84802 23.4846 9.03928C22.8826 9.40294 22.1114 10.0261 20.9947 10.9463ZM15.168 11.0833C15.168 12.0498 14.3845 12.8333 13.418 12.8333C12.4515 12.8333 11.668 12.0498 11.668 11.0833C11.668 10.1168 12.4515 9.33334 13.418 9.33334C14.3845 9.33334 15.168 10.1168 15.168 11.0833Z" fill="white"/>
</svg>
